<svg width="128" height="78" viewBox="0 0 128 78" fill="none" xmlns="http://www.w3.org/2000/svg">
<path d="M126.002 44.2838C124.098 41.3088 120.212 36.8021 119.631 36.9352C118.517 37.1903 119.244 38.8058 121.729 41.6477C123.238 43.3387 124.916 45.5508 125.499 46.5374C126.921 48.9611 127.181 49.207 127.488 48.3221C127.869 47.3183 127.743 46.9907 126.002 44.2838Z" fill="#848484"/>
<path d="M112.823 30.3485C111.061 28.6645 106.313 25.7301 105.635 25.8853C104.134 26.2292 105.709 28.2104 109.583 30.8869C111.818 32.4116 113.792 33.6904 114.034 33.6349C114.664 33.4908 113.874 31.3804 112.823 30.3485Z" fill="#848484"/>
<path d="M91.9006 18.6451C89.9845 18.0657 88.258 17.6466 88.0643 17.691C87.9191 17.7243 87.9553 18.3269 88.2183 19.0304C88.5368 19.9757 89.3808 20.5461 91.6801 21.2413C95.3186 22.4444 96.0185 22.3858 95.6639 20.8378C95.4534 19.9187 94.691 19.4824 91.9006 18.6451Z" fill="#848484"/>
<path d="M74.381 15.1235C73.5743 14.4936 70.4631 14.0353 67.2095 14.0679C65.9438 14.1033 65.5787 14.2887 65.4807 14.9731C65.2625 16.245 66.4827 16.6782 70.7407 17.0266C75.1439 17.3417 76.3361 16.7631 74.381 15.1235Z" fill="#848484"/>
<path d="M55.4586 15.4868C54.7668 15.1361 53.2549 15.4315 49.4262 16.5123C43.0276 18.3854 42.2116 18.8269 42.5329 20.2298C42.7878 21.3424 42.7878 21.3424 49.1713 19.6255C52.6349 18.7302 55.7858 17.8048 56.1025 17.6304C56.859 17.1516 56.4962 16.0128 55.4586 15.4868Z" fill="#848484"/>
<path d="M54.5292 46.3502C54.2236 46.5729 53.9471 47.1454 54.0206 47.6886C54.0346 48.1946 53.7931 50.0319 53.4699 51.7352C52.952 54.145 52.973 54.9039 53.5679 55.2767C54.1518 55.6012 54.3827 55.4974 54.6411 54.6236C55.8614 50.8309 55.7851 45.6043 54.5292 46.3502Z" fill="#848484"/>
<path d="M49.0342 36.1533C47.1287 33.8404 44.2438 31.701 43.6547 32.2433C42.9535 32.964 43.8477 34.6429 45.6769 35.955C46.7104 36.6856 48.1745 38.1831 48.9619 39.1738C49.712 40.2239 50.563 41.0472 50.8535 40.9807C51.7249 40.781 50.7503 38.3059 49.0342 36.1533Z" fill="#848484"/>
<path d="M50.6929 58.0737C50.4176 57.984 49.9335 58.0949 49.7247 58.2955C48.8147 59.2167 45.3856 59.595 43.5774 59.0418C41.6503 58.4141 41.6503 58.4141 41.5814 59.4481C41.3913 61.7319 45.5845 62.9097 49.1046 61.5942C50.9373 60.9198 51.6536 60.0429 51.3765 58.8335C51.31 58.5433 51.0167 58.1522 50.6929 58.0737Z" fill="#848484"/>
<path d="M34.9166 24.5712C34.1391 24.2911 29.6927 27.3462 28.9309 28.6918C28.2438 29.9184 28.9222 31.545 29.8391 30.8767C30.0963 30.665 31.5388 29.6218 32.9813 28.5786C34.7778 27.3015 35.5909 26.4024 35.5437 25.7513C35.5186 25.197 35.2404 24.6498 34.9166 24.5712Z" fill="#848484"/>
<path d="M34.584 56.9271C33.2419 55.9617 31.555 54.1588 30.7869 52.8074C30.0298 51.5043 29.1566 50.5842 28.9367 50.7364C28.2286 51.2041 29.1992 53.8839 30.8073 56.0103C32.2036 57.8797 36.356 61.1035 37.1306 60.926C38.1957 60.682 36.8296 58.5002 34.584 56.9271Z" fill="#848484"/>
<path d="M27.3365 35.5231C26.4925 34.9527 26.0708 35.5585 25.4851 38.3402C24.7793 41.7095 25.4296 46.5501 26.5431 46.295C26.9788 46.1952 27.2303 45.0684 27.1632 42.9963C27.1142 41.2255 27.3225 39.243 27.5768 38.5738C28.1338 37.2243 28.0394 35.9221 27.3365 35.5231Z" fill="#848484"/>
<path d="M23.5181 24.6368C21.952 24.0281 18.7066 23.6515 16.1863 23.7706C14.3174 23.8424 14.2801 23.9018 14.7134 25.1263C15.1136 26.2057 15.5189 26.4183 17.8194 26.4514C19.312 26.5167 21.5116 26.7766 22.6986 27.0647C25.3479 27.7307 25.3963 27.7196 25.0638 26.2683C24.9087 25.5911 24.2846 24.8685 23.5181 24.6368Z" fill="#848484"/>
<path d="M3.73703 26.3678C2.68538 25.3359 -4.72819 28.5616 -7.28651 31.1843C-7.86455 31.7749 -8.13403 32.6004 -7.9678 33.326C-7.81266 34.0033 -7.59393 34.5132 -7.4971 34.491C-7.40028 34.4688 -6.17771 33.5778 -4.78365 32.5457C-3.34117 31.5024 -0.941528 30.189 0.633928 29.7262C4.28413 28.5337 5.05991 27.6941 3.73703 26.3678Z" fill="#848484"/>
</svg>
