<svg width="60" height="26" viewBox="0 0 60 26" fill="none" xmlns="http://www.w3.org/2000/svg">
<path d="M55.3896 6.94427C53.9517 8.48944 52.6337 11.2364 52.2143 13.5828L51.795 15.7575L49.758 12.896C47.7809 10.1491 45.9237 9.17619 45.0251 10.4924C44.6656 11.122 48.2602 19.9352 50.2972 23.4261C52.8733 27.8327 55.5693 26.5737 58.2054 19.7062C60.1225 14.7846 60.6018 8.54667 59.164 6.94427C58.0856 5.68524 56.5279 5.68524 55.3896 6.94427ZM56.1684 15.7002C55.6292 17.0165 55.5693 17.0165 55.5693 15.0135C55.5094 13.8689 55.6891 12.4382 55.9887 11.8659C56.3482 11.0647 56.468 11.1792 56.5878 12.5527C56.7076 13.5256 56.5279 14.9563 56.1684 15.7002Z" fill="#848484"/>
<path d="M15.8673 0.527876C13.2258 1.87573 12.4219 6.91554 13.5703 14.358C13.9149 16.4091 14.0872 18.1672 13.9723 18.2844C13.8575 18.4016 11.9051 16.1747 9.60811 13.3032C7.31116 10.4317 4.89936 7.85318 4.21028 7.50156C2.0856 6.50532 1.16682 6.32951 0.362886 6.79833C-0.555894 7.38436 0.305462 10.2559 2.54499 13.479C4.72709 16.7021 14.4891 24.8479 17.1306 25.6683C20.0592 26.5473 22.3562 25.6097 21.9542 23.6758C21.7819 22.914 21.4948 18.343 21.3225 13.5376C20.978 4.80585 20.2889 0.35207 19.3127 0.35207C19.083 0.35207 18.5088 0.234865 18.0494 0.0590572C17.6474 -0.116749 16.6712 0.117661 15.8673 0.527876ZM18.3365 14.4166C18.6236 24.6721 18.2791 24.9065 17.0158 15.2371C16.3267 9.55265 16.6138 3.16498 17.59 4.21983C17.8197 4.51284 18.1642 9.08383 18.3365 14.4166Z" fill="#848484"/>
</svg>
