<svg width="79" height="77" viewBox="0 0 79 77" fill="none" xmlns="http://www.w3.org/2000/svg">
<path d="M16.7143 0.203318C14.1834 0.965387 12.3494 2.99757 11.7992 5.64667L11.5791 6.62647L10.0386 6.08213C6.33394 4.81202 1.27214 6.91678 0.208432 10.1828C-0.121685 11.1626 -0.0850054 11.6706 0.50187 12.9407C1.27214 14.7189 3.76636 17.0777 5.16019 17.4406C5.67371 17.5494 6.07719 17.7309 6.07719 17.8035C6.07719 17.9123 5.49031 18.493 4.75672 19.1462C1.45554 21.9767 1.63894 26.6217 5.16019 28.6539C7.83781 30.2506 11.2123 29.7063 13.8533 27.2749L14.8436 26.3677L15.7606 27.5652C17.5579 29.8877 20.9325 30.5772 23.9035 29.2345C26.6912 28.0007 28.085 25.0976 27.4615 21.9041L27.0947 20.1985L28.9286 19.9808C32.4866 19.5816 34.7607 17.114 34.7974 13.594C34.8708 10.0013 32.5233 7.96916 28.3785 8.04174L25.8842 8.07803V6.48131C25.8842 5.57409 25.6642 4.41284 25.3707 3.86851C24.7838 2.77983 23.1699 1.18312 22.0329 0.602497C20.8591 0.0218735 18.1081 -0.19586 16.7143 0.203318ZM21.4093 1.98148C23.6468 3.32417 24.3804 6.00955 23.4634 9.20298C23.2066 10.0376 23.28 10.0376 24.6371 9.8199C29.2221 9.05783 30.0657 9.13041 31.3128 10.1465C33.4036 11.8884 33.3302 15.3721 31.1661 17.5132C29.8456 18.8196 29.2221 18.8921 26.1777 18.1301C24.3804 17.6583 24.0136 18.0575 24.7838 19.6542C26.2877 22.7388 26.0676 25.3153 24.1236 27.1297C21.0792 29.9966 17.1545 28.545 16.7143 24.3718C16.4575 21.7227 15.6506 21.6864 14 24.2629C12.6795 26.3314 10.6255 27.9644 9.01156 28.2184C6.7741 28.6176 4.2432 26.3314 4.2432 23.9363C4.2432 22.5936 5.34359 20.7429 6.66406 19.9082C7.17758 19.5453 8.49805 18.9647 9.52508 18.6381C12.166 17.7309 11.9826 17.0777 9.01156 16.8237C5.74707 16.5696 3.72968 15.4084 2.55593 13.1585C0.978706 10.1828 3.47293 7.06194 7.36098 7.06194C8.75481 7.06194 10.8455 7.93287 10.8455 8.51349C10.8455 8.91267 11.9093 9.96505 12.3127 9.96505C13.1564 9.96505 13.7799 8.73123 13.7799 7.02565C13.7799 2.48952 17.8514 -0.159571 21.4093 1.98148Z" fill="#848484"/>
<path d="M16.0301 12.3446C14.3314 14.0984 15.6408 17.0943 18.1181 17.0943C20.9492 17.0943 22.4002 14.2445 20.5245 12.4177C19.4275 11.3582 17.021 11.3217 16.0301 12.3446ZM18.6489 13.4407C19.9937 13.9522 19.6752 15.9982 18.2596 15.9982C17.658 15.9982 16.9502 14.3906 17.1979 13.6599C17.4457 12.9658 17.4811 12.9658 18.6489 13.4407Z" fill="#848484"/>
<path d="M44.0238 31.3501C40.5186 32.5884 38.5104 34.8101 37.8897 38.0515C37.5976 39.654 38.4739 43.3689 39.7153 45.5906C40.2265 46.4647 40.5916 47.2295 40.5551 47.2659C40.4821 47.3387 39.4963 47.6301 38.3279 47.9579C34.0194 49.1962 30.7698 53.8216 30.7698 58.702C30.7698 65.9496 36.2832 69.6645 43.0014 66.933C44.2064 66.4231 45.2287 66.0225 45.3017 66.0225C45.3382 66.0225 45.3748 66.7873 45.3748 67.7343C45.4113 71.3035 48.1132 75.0912 51.3628 76.0381C53.4805 76.6573 56.292 76.7301 58.2271 76.2202C60.783 75.4918 62.9373 72.5053 63.4484 68.8633L63.704 67.1879L65.3471 67.7343C69.7286 69.2275 75.7531 66.4595 78.0169 61.9434C79.1488 59.6853 79.3313 56.1161 78.4185 54.3315C77.5422 52.6926 75.1689 51.1629 72.7226 50.6894L70.5684 50.2524L71.5542 49.1234C74.8768 45.1899 74.5117 39.2898 70.7509 35.8299C68.6697 33.936 66.9901 33.244 64.2882 33.244C61.8784 33.244 59.8702 33.936 58.5192 35.2471L57.6064 36.1212L56.3285 34.4459C54.5394 32.0421 52.2756 30.9859 48.7339 30.8038C46.6527 30.6946 45.4113 30.8402 44.0238 31.3501ZM50.0484 32.1878C52.5312 32.6977 54.6489 34.5551 55.4887 36.9225C56.0729 38.525 56.2555 38.7071 57.2413 38.7071C58.1176 38.7071 58.5192 38.4157 59.213 37.2867C59.6511 36.5219 60.5639 35.6113 61.2212 35.2107C62.6817 34.3366 65.6027 34.3366 67.2457 35.2107C70.6049 36.9589 72.6131 41.3658 71.6637 44.8257C71.1891 46.6468 68.5967 49.9974 67.6839 49.9974C67.3187 49.9974 66.8076 50.216 66.5885 50.5073C65.8948 51.345 67.2457 51.8185 70.3128 51.8185C73.2703 51.8185 74.6943 52.474 76.1913 54.4772C77.2501 55.8976 77.2136 59.4304 76.1548 61.4699C74.6212 64.3471 70.8239 67.0787 68.2681 67.1151C66.9901 67.1151 64.7994 66.2046 63.777 65.2577C63.3389 64.8206 62.6817 64.5657 62.28 64.6385C61.7323 64.7478 61.5863 65.2212 61.4037 67.6614C61.1116 71.4856 60.1258 73.3794 57.6795 74.6542C56.1824 75.419 52.9328 75.3461 51.2898 74.4721C48.4418 73.0152 46.5432 68.3898 47.529 65.1848C48.4418 62.1255 48.4418 62.0162 47.675 62.0162C47.2734 62.0162 46.2511 62.7082 45.3748 63.5095C43.5491 65.2212 40.5916 66.7509 39.0216 66.7509C33.3622 66.7509 30.7333 58.2285 34.6036 52.5833C36.3562 50.0339 38.5834 48.832 41.9061 48.6135C44.7906 48.4314 45.2287 48.0307 43.4761 47.1931C42.2347 46.5739 42.0156 46.2461 40.8837 43.3325C38.5834 37.578 40.4821 33.6446 46.2876 32.1514C47.8576 31.7508 48.0402 31.7508 50.0484 32.1878Z" fill="#848484"/>
<path d="M53.9314 48.8026C52.5777 49.4127 52.1377 50.3098 52.1377 52.3913C52.1377 54.724 53.1868 55.8006 55.4543 55.8006C58.0264 55.8006 59.8877 53.8268 59.3801 51.6377C59.1432 50.6328 57.1126 48.8385 55.8604 48.5155C55.3866 48.4078 54.5405 48.5155 53.9314 48.8026ZM57.5526 52.176C57.5526 52.7861 57.2141 53.5038 56.6726 54.0421C55.8943 54.8317 55.7589 54.8676 54.9128 54.3292C53.6945 53.6115 53.4576 51.53 54.4729 50.4534L55.1836 49.6998L56.3681 50.4534C57.248 51.0276 57.5526 51.4582 57.5526 52.176Z" fill="#848484"/>
</svg>
