<svg width="47" height="61" viewBox="0 0 47 61" fill="none" xmlns="http://www.w3.org/2000/svg">
<path d="M9.77052 0.236511C9.51102 0.415628 9.12178 1.26644 8.94878 2.11725C8.17029 5.9235 3.97509 12.1926 1.25037 13.7151C-0.566108 14.7451 -0.436359 15.372 1.85586 16.8945C5.83482 19.5812 7.91079 23.3875 8.04054 28.2237C8.08379 30.6865 8.17029 31 8.94878 31C9.68402 31 9.90027 30.4179 10.5058 26.9698C11.8032 19.7604 14.701 14.9242 19.2422 12.5956C20.9721 11.6553 21.2316 11.3418 20.8424 10.8045C20.5396 10.4462 19.5449 10.1776 18.5934 10.1776C14.7875 10.1776 11.933 7.13255 11.3707 2.4307C11.1113 0.19173 10.6788 -0.390402 9.77052 0.236511ZM11.068 7.93858C11.7167 8.92373 13.0142 10.1328 14.0522 10.6701C15.047 11.2075 15.9119 11.7001 15.9984 11.7448C16.0849 11.8344 15.1767 12.8643 14.0522 14.0286C12.7547 15.372 11.4572 17.387 10.6788 19.223C9.94352 20.8798 9.25152 22.268 9.12178 22.268C8.94878 22.268 8.60278 21.6859 8.30004 20.9246C7.99729 20.2081 6.69981 18.5961 5.40232 17.2975L3.06685 15.0137L5.44557 12.5509C6.74305 11.1627 8.25679 9.1924 8.81903 8.11769C9.38127 7.04299 9.85702 6.1474 9.85702 6.1474C9.90027 6.1474 10.4193 6.95343 11.068 7.93858Z" fill="#848484"/>
<path d="M35.8219 31.9568C35.4371 32.531 35.1004 33.2487 35.1004 33.6315C35.1004 35.8803 30.7236 41.3827 27.1163 43.6315C25.9619 44.3971 25 45.2583 25 45.5454C25 45.8803 25.9138 46.598 27.0682 47.1722C30.3388 48.8468 32.1184 50.4258 33.1765 52.6746C34.0423 54.4449 34.1866 55.2583 33.898 57.8899C33.5613 60.8086 33.6094 61 34.5233 61C35.5814 61 35.9181 60.0909 36.7838 55.7368C36.9762 54.8277 37.842 52.5311 38.7558 50.6172C40.3911 47.1722 42.2188 45.3061 45.5856 43.5837C46.4514 43.1052 47.1247 42.531 46.9804 42.1961C46.8843 41.909 45.5856 41.3348 44.0465 40.9521C42.0264 40.4736 40.7278 39.8037 39.333 38.464C37.4091 36.6458 37.361 36.598 37.6977 34.0142C38.0344 31.0477 37.1686 30.0908 35.8219 31.9568ZM40.2468 41.8133L42.2669 42.8181L40.2468 44.6841C38.5634 46.2152 37.6496 47.6028 35.7257 51.3349C35.6776 51.4306 34.8599 50.6172 33.898 49.5645C32.936 48.5119 31.3488 47.1722 30.435 46.598L28.7035 45.5454L31.1564 43.4401C32.5032 42.2918 34.0904 40.6171 34.6195 39.6602L35.6776 38.0334L36.9762 39.421C37.6496 40.1387 39.1406 41.2391 40.2468 41.8133Z" fill="#848484"/>
</svg>
