<svg width="42" height="54" viewBox="0 0 42 54" fill="none" xmlns="http://www.w3.org/2000/svg">
<path d="M8.82068 5.17879C6.66451 8.00357 3.99871 11.4169 2.90102 12.7116C0.470436 15.6148 0 16.4779 0 18.0473C0 18.675 1.68573 24.2853 3.72429 30.4057C5.80205 36.5653 7.40937 41.7441 7.29176 41.9403C6.86053 42.6465 9.0951 44.0196 12.7018 45.3536C20.3072 48.0606 29.2062 51.8663 29.8335 52.6902C30.4215 53.3964 30.6176 53.4356 31.5976 53.004C32.6169 52.6117 32.9305 51.9447 34.4595 47.5506C36.498 41.7049 40.3791 32.2104 41.3984 30.6804C41.7904 30.0919 42.0648 29.3464 41.9864 29.0326C41.7904 28.0125 30.9312 6.55195 29.9119 5.21802C29.4023 4.51182 28.6574 3.76639 28.2654 3.57023C27.8733 3.33483 24.9723 2.74633 21.7969 2.19707C18.6214 1.68703 15.642 0.980839 15.0932 0.627739C14.5835 0.274639 13.8387 7.62939e-06 13.4466 7.62939e-06C13.0154 7.62939e-06 11.2513 2.0009 8.82068 5.17879ZM20.5816 3.57023C23.2474 4.04103 25.9916 4.74722 26.6188 5.13955L27.7557 5.80652L27.2461 7.92511C26.3444 11.8877 25.4428 14.5163 25.0507 14.5163C24.2275 14.5163 20.464 12.3585 18.3078 10.6322C15.9948 8.78824 15.4068 7.65048 14.6619 3.64869C14.4267 2.43246 14.5051 2.27553 15.0148 2.4717C15.3676 2.5894 17.8766 3.09943 20.5816 3.57023ZM13.2898 6.98351L14.1915 10.0437L12.1137 14.5163C11.016 16.988 10.036 19.1066 9.95757 19.185C9.91836 19.2243 8.23263 18.9889 6.31169 18.6358C2.35218 17.8511 2.15617 17.6157 3.52827 15.3794C4.31233 14.0847 12.1529 3.92332 12.349 3.92332C12.3882 3.92332 12.8194 5.29649 13.2898 6.98351ZM34.4987 18.2827C37.2037 23.5791 39.4774 28.091 39.5558 28.3264C39.6343 28.601 39.0854 28.6402 37.7917 28.4441C36.7332 28.2871 34.5379 28.091 32.9305 28.0125L30.0295 27.8948L29.1278 24.2461C28.6574 22.2452 28.2262 20.1659 28.2262 19.6166C28.187 19.0673 27.9518 18.008 27.7165 17.2626C27.2853 16.0856 27.3245 15.4971 28.1086 12.947C28.6182 11.3384 29.0102 9.6906 29.0102 9.29827C29.0102 8.94517 29.1278 8.63131 29.3239 8.63131C29.4807 8.63131 31.7936 12.9862 34.4987 18.2827ZM18.7782 13.1039C20.1896 14.0455 21.9537 14.9871 22.6985 15.2617C24.7371 15.9287 25.4036 16.7526 25.874 19.185C26.1092 20.4013 26.7365 23.1868 27.2853 25.3839C28.187 29.1503 28.187 29.6995 27.8341 34.996C27.6381 38.0954 27.4421 40.724 27.4421 40.9202C27.4421 41.4302 25.4036 40.7633 21.4441 38.9193C18.6998 37.6246 17.563 36.9184 17.4453 36.3299C15.8772 29.1503 14.7011 25.3839 12.9762 22.1668C12.545 21.3036 12.1529 20.3228 12.1529 20.0089C12.1529 19.3812 15.6812 11.3776 15.9948 11.3776C16.0732 11.3776 17.3277 12.1623 18.7782 13.1039ZM6.82133 19.9697C8.50706 20.4013 10.0752 20.9505 10.232 21.2644C10.428 21.539 11.2905 23.6184 12.1921 25.8939C14.1523 30.955 15.2108 35.1529 14.7011 35.8591C14.4659 36.1338 13.525 37.4285 12.545 38.7231C11.5649 40.0178 10.5848 41.4302 10.3104 41.8226C9.95757 42.4503 9.83996 42.4503 9.68315 41.9795C7.17415 34.486 2.74421 20.3228 2.74421 19.852C2.74421 19.0673 2.97943 19.0673 6.82133 19.9697ZM37.8701 30.0526L39.0854 30.2096L36.8508 35.6237C35.6355 38.5662 33.9498 42.8426 33.1265 45.1182C32.3033 47.3937 31.48 49.3946 31.3624 49.5515C30.8136 50.1792 29.7159 44.4904 29.7551 41.1948C29.7551 37.7423 30.0687 32.4851 30.4215 30.4057L30.5784 29.1895L33.6362 29.5426C35.2827 29.6995 37.2037 29.9349 37.8701 30.0526ZM24.1099 41.6656C27.1285 42.6857 27.2461 42.7642 27.5989 44.2158C27.7949 45.0397 28.1478 46.6483 28.4222 47.7468C28.775 49.3553 28.775 49.8261 28.4222 49.8261C27.991 49.8261 12.5842 43.6273 12.1921 43.3134C11.9569 43.1173 12.741 41.7049 14.3091 39.547L15.642 37.7423L18.3078 39.1547C19.7583 39.9394 22.3849 41.0379 24.1099 41.6656Z" fill="#848484"/>
</svg>
