<svg width="39" height="140" viewBox="0 0 39 140" fill="none" xmlns="http://www.w3.org/2000/svg">
<path d="M18.5752 31.1908C18.777 50.6134 19.0293 67.6954 19.1807 69.2393C19.4331 72.0281 19.3826 72.0779 17.6163 73.074C15.6482 74.2692 14.2352 76.2613 12.9736 79.7474C12.469 81.0422 11.7625 82.1877 11.3083 82.2873C10.0467 82.5861 8.63367 85.9726 8.886 88.0643C9.08785 89.6081 8.83553 90.1559 6.96835 92.2476C4.3442 95.1361 2.0733 99.5685 0.862148 104.051C-0.197605 108.035 -0.298534 119.39 0.66029 123.473C2.37608 130.495 6.36277 135.874 11.712 138.314C14.2352 139.509 15.2445 139.659 19.6349 139.659C24.0253 139.659 25.0346 139.509 27.5578 138.314C37.7012 133.633 41.5365 122.129 37.2975 109.031C35.8845 104.698 31.9987 96.5306 30.5857 94.9369C29.9801 94.2397 29.9297 93.8413 30.3839 92.7954C31.2922 90.903 31.0904 88.7117 29.9801 87.6161C29.425 87.0682 28.769 86.62 28.5167 86.62C28.3148 86.62 27.9616 84.9766 27.8606 82.9347C27.5578 78.5522 25.943 74.9166 23.6216 73.4226L22.0572 72.4266L21.7544 55.2948C21.5526 45.8823 21.4012 30.394 21.4012 20.8819C21.4012 11.3698 21.2498 1.90744 21.0984 -0.184235C20.7451 -3.81975 20.6947 -4.01895 19.534 -4.01895H18.2724L18.5752 31.1908ZM22.36 75.1656C23.8235 75.9127 24.9337 79.349 24.9337 82.8849V86.122H23.1674C22.1581 86.122 19.8872 85.7734 18.121 85.3252C14.3362 84.379 14.2857 84.1797 15.8501 79.9466C17.6668 75.1656 19.6349 73.7214 22.36 75.1656ZM16.4557 86.5702C18.4742 87.118 21.603 87.7157 23.4198 87.8651C27.2046 88.2635 27.9616 88.7117 27.9616 90.6042C27.9616 92.7954 26.4981 94.1401 23.8235 94.4389C17.6668 95.1361 11.8129 91.4508 11.8129 86.869C11.8129 85.375 11.8634 85.375 16.4557 86.5702ZM17.465 95.3353L18.9789 95.6839L18.777 100.017L18.6256 104.349L16.2538 107.039C14.4371 109.081 13.8315 110.176 13.8315 111.371C13.8315 113.214 14.8913 114.459 16.9098 114.858C17.7173 115.007 18.3733 115.405 18.3733 115.804C18.3733 116.152 18.878 117.049 19.534 117.796C20.4928 118.891 20.9975 119.091 22.1077 118.792C22.8142 118.642 23.8739 118.045 24.429 117.497C25.6907 116.252 26.599 112.766 26.1953 110.674C25.943 109.33 25.6907 109.031 24.5804 109.031C23.3693 109.031 23.3188 109.13 23.5711 110.923C23.8235 112.915 22.8646 116.003 21.9563 116.003C21.704 116.003 21.4012 115.505 21.3002 114.907C21.1993 114.21 20.6442 113.712 19.7359 113.463C16.3043 112.567 16.0015 110.774 18.8275 107.786C21.1489 105.296 22.0572 102.557 21.8049 98.8712L21.6535 96.3313L24.8328 96.0823C26.6999 95.9329 28.2139 96.0325 28.4662 96.3313C29.425 97.4768 33.5126 105.993 34.4715 108.881C37.7517 118.642 36.4396 127.358 30.7876 133.334C26.2962 138.065 20.4424 139.559 14.6389 137.368C6.71602 134.479 2.7798 126.561 2.72933 113.712C2.72933 105.395 4.44512 99.6681 8.58321 93.9907L10.299 91.6998L13.125 93.3432C14.6894 94.2895 16.6071 95.1859 17.465 95.3353Z" fill="#848484"/>
</svg>
