<svg width="85" height="140" viewBox="0 0 85 140" fill="none" xmlns="http://www.w3.org/2000/svg">
<path d="M67.1761 0.60569C66.0968 1.17727 65.8912 1.59297 66.0454 3.46361C66.0968 4.60678 67.0733 8.14021 68.1525 11.206C70.0541 16.5581 70.2083 16.8179 71.6987 16.9738C73.0349 17.1297 73.7031 16.662 76.6325 13.5963C78.4827 11.6736 80.487 9.07553 81.1552 7.93237C82.2344 5.85388 82.2344 5.69799 81.4121 4.39893C80.0245 2.32044 77.9174 2.58025 75.1421 5.17837L72.8294 7.36078V5.9578C72.8294 3.67146 71.4417 1.02139 70.0027 0.449802C68.4095 -0.173744 68.7179 -0.173744 67.1761 0.60569ZM69.7457 4.71071C69.7457 5.69799 69.643 5.74995 69.2318 5.1264C68.5637 4.13912 68.5637 3.56754 69.2318 3.56754C69.5402 3.56754 69.7457 4.08716 69.7457 4.71071ZM78.9966 6.32154C78.9966 7.10097 73.3433 13.5963 72.9836 13.2325C72.6752 12.9207 77.9687 5.64603 78.5341 5.64603C78.791 5.64603 78.9966 5.9578 78.9966 6.32154Z" fill="#848484"/>
<path d="M67.0727 38.6568C65.8549 40.676 65.6431 45.9571 66.5962 51.4453C67.3374 55.5873 67.8669 56.3122 69.667 55.898C71.6789 55.3802 79.0913 50.4098 82.321 47.4068C84.7565 45.1287 85.1271 44.5074 84.9682 43.0577C84.8094 41.4527 84.7035 41.4009 82.321 41.2456C79.7796 41.0902 76.444 42.3328 75.0674 43.9379C73.9026 45.284 73.4261 44.8698 73.4261 42.6953C73.4261 41.5562 73.0555 39.7959 72.6849 38.8121C71.9966 37.2071 71.6789 37 69.9847 37C68.4493 37 67.9198 37.3107 67.0727 38.6568ZM70.7259 42.9542C70.7789 45.284 69.7729 48.4941 69.0846 48.0799C68.4493 47.6657 68.7669 41.1938 69.4552 40.1065C70.0376 39.2263 70.673 40.7278 70.7259 42.9542ZM81.8974 43.9379C81.8974 44.8181 78.6148 47.7692 74.1674 50.9275C69.7729 53.9823 68.714 54.3447 71.3613 51.8595C72.3143 50.8758 73.7967 49.1154 74.6439 47.9246C75.4381 46.7337 77.1853 45.0769 78.5618 44.2485C80.9444 42.7471 81.8974 42.6435 81.8974 43.9379Z" fill="#848484"/>
<path d="M27.544 49.6314C27.2375 50.0467 24.02 54.4077 20.3429 59.3397C16.6657 64.3236 10.4861 73.0973 6.65571 78.86C-0.341095 89.3469 -0.341095 89.3989 0.220692 91.3197C0.476049 92.41 1.08891 96.1998 1.44641 99.782C4.25534 125.273 6.04285 139.549 6.40035 139.965C6.65571 140.224 11.9161 139.03 19.2193 137.006C26.0629 135.085 42.6611 130.516 56.093 126.83C69.5758 123.092 80.7605 119.873 80.9648 119.666C81.118 119.406 80.7605 115.409 80.0966 110.684C78.5644 99.3667 76.3173 80.2617 76.3173 77.9774C76.3173 76.991 76.113 75.9008 75.9087 75.5893C75.7044 75.2778 73.8148 74.1356 71.7208 73.0454C64.8262 69.5151 48.6365 60.2741 39.3926 54.5115C30.404 49.0084 28.5654 48.1778 27.544 49.6314ZM32.0383 52.4349C37.8093 56.4324 56.1951 67.127 67.1244 72.8377C70.0866 74.3952 72.5891 75.6931 72.6912 75.745C73.1509 76.0046 69.9844 80.2617 66.9201 83.5324L63.7026 87.0107L63.958 84.3111C64.2644 81.0923 63.1919 79.0157 61.2512 79.0157C59.6169 79.0157 58.6465 80.5213 57.1144 85.6609L55.7865 89.9699L53.0797 87.1146C51.2922 85.1937 49.9644 84.2073 49.1472 84.2073C47.7172 84.2073 46.6958 85.0899 46.6958 86.3877C46.6958 88.2567 48.8919 93.1368 50.8837 95.6807C52.0583 97.2381 52.7733 98.6399 52.6201 99.1071C52.2626 99.9897 51.9562 99.782 43.9379 94.4866C41.4865 92.8253 39.0351 91.4755 38.5243 91.4755C37.8604 91.4755 36.6347 93.2406 34.3876 97.2901C32.6511 100.509 31.17 103.26 31.0679 103.364C30.9658 103.468 30.3018 103.053 29.4847 102.534C28.7186 101.962 25.7565 100.249 22.9475 98.7437C20.1386 97.2381 15.7975 94.7981 13.2439 93.3964C10.7414 91.9427 7.47285 90.2295 5.99178 89.6584L3.33606 88.5163L8.80071 80.2617C15.7975 69.7228 29.1272 51.0851 29.74 50.9812C29.8422 50.9812 30.8636 51.6561 32.0383 52.4349ZM75.5512 97.1862C76.3173 103.624 77.2366 110.58 77.6451 112.709C78.0026 114.838 78.258 116.655 78.2069 116.707C78.0537 116.914 55.4801 102.17 54.714 101.391C54.3055 100.976 56.144 98.7437 61.3533 93.3964C65.3369 89.3469 69.678 84.6226 71.0569 82.9613L73.5084 79.8983L73.8659 82.7017C74.0701 84.2592 74.8362 90.7487 75.5512 97.1862ZM60.4851 87.3222C59.8722 89.8661 59.1572 92.1504 58.9019 92.3061C58.238 92.7215 58.3401 91.8389 59.5148 87.1665C60.6383 82.7017 60.9448 81.8711 61.3533 82.3383C61.5065 82.4941 61.098 84.7264 60.4851 87.3222ZM51.854 89.5027C54.4587 93.0849 55.8376 95.5768 55.3269 95.9402C54.6119 96.3556 53.4883 95.2653 52.0583 92.8253C49.5047 88.3605 49.3515 86.1801 51.854 89.5027ZM7.42178 92.5138C9.05607 93.3445 11.3032 94.5904 12.3246 95.2653C17.7893 98.7437 28.8208 104.403 29.5358 104.143C29.9954 103.987 30.3529 103.987 30.3529 104.247C30.3529 105.804 9.82214 137.161 8.80071 137.161C8.54535 137.161 8.39214 136.798 8.39214 136.331C8.39214 135.915 7.26856 125.636 5.83856 113.54C4.45963 101.443 3.28498 91.4236 3.28498 91.2678C3.28498 90.6448 4.56177 91.0082 7.42178 92.5138ZM55.429 104.61C64.2644 110.425 72.7934 115.928 74.3766 116.914C76.0109 117.901 77.3387 118.887 77.3387 119.043C77.3387 119.406 73.7637 120.548 72.6912 120.548C72.2826 120.548 58.7998 124.182 42.7122 128.647C26.5736 133.06 13.295 136.59 13.1418 136.486C12.9886 136.331 13.8057 134.981 14.8782 133.423C20.8025 125.273 33.0086 105.7 37.7583 96.7709C38.5243 95.3172 39.2393 94.0713 39.2904 94.0713C39.3926 94.0713 46.6447 98.7956 55.429 104.61Z" fill="#848484"/>
<path d="M32.224 64.9349C31.7545 65.4353 31.2327 66.6363 31.0762 67.537C30.3979 71.5404 34.4153 83 36.5023 83C37.4936 83 47.6154 73.442 48.6068 71.5904C49.4415 69.9391 48.9198 68.2877 47.3024 67.5871C45.2676 66.6863 42.8154 67.8873 40.7284 70.7898L39.0067 73.2418L38.4328 70.2393C37.8588 67.1868 36.9197 65.0349 35.8762 64.3844C34.8327 63.6838 33.111 63.9841 32.224 64.9349ZM35.5632 70.2393C35.8762 71.7406 36.0849 73.7923 35.9806 74.8432L35.7719 76.7448L35.0936 75.2435C34.2066 73.1918 33.6327 66.7364 34.4153 67.1868C34.7284 67.3369 35.2501 68.7381 35.5632 70.2393ZM45.8937 70.5396C46.0502 71.2902 41.6154 76.3945 41.1458 75.9941C40.9893 75.844 41.7197 74.3427 42.7632 72.6413C44.5893 69.6388 45.5806 68.9883 45.8937 70.5396Z" fill="#848484"/>
</svg>
