<svg width="162" height="155" viewBox="0 0 162 155" fill="none" xmlns="http://www.w3.org/2000/svg">
<path d="M229.718 73.1939C224.466 76.2965 210.366 82.404 203.851 84.4699C191.618 88.3718 165.463 93.1496 163.422 91.8199C163.195 91.6722 160.798 91.7149 158.152 91.8094C155.533 92.0282 148.934 91.5793 143.505 90.8228C112.804 86.5438 89.428 71.8494 67.03 42.9264C53.0719 24.8492 46.5664 9.38139 46.6421 -5.11441C46.6377 -10.8925 45.4815 -13.25 43.2804 -11.6894C42.0442 -10.7836 41.7195 -3.50862 42.6177 1.88926L43.2669 5.52068L32.1367 16.9857C18.4718 31.1844 0.297838 51.6431 0.191108 52.9639C0.173304 55.3052 3.82407 55.6516 15.7636 54.0183C28.1033 52.4319 46.8552 48.606 58.1232 45.3589L63.5705 43.7741L68.6975 49.788L73.7756 55.877L68.2527 66.5032C65.26 72.2538 58.7899 84.8298 54.0763 94.379C49.2871 103.879 45.2272 111.929 45.0316 112.229C44.8359 112.53 45.4718 113.372 46.4545 114.012C48.7979 115.539 54.841 113.7 65.5043 108.241C69.7688 105.993 80.063 100.935 88.4229 96.8624C96.7339 92.8653 105.214 88.4435 107.317 87.0331C111.003 84.515 112.675 84.4278 116.455 86.8902C118.118 87.9736 118.136 89.2686 117.135 96.4241C114.556 114.102 114.872 142.542 117.744 144.413C119.483 145.546 119.532 145.471 130.253 133.311C145.425 116.138 163.675 95.7282 163.751 95.7775C163.875 95.7516 166.321 95.6338 169.313 95.3375C172.182 95.067 174.827 94.9726 175.13 95.1696C175.583 95.4651 177.94 103.417 186.024 131.999C187.914 138.684 190.613 146.111 192.018 148.417C194.651 152.806 197.332 155.301 198.795 154.543C199.987 154.036 209.738 131.299 213.99 118.989C216.057 113.17 218.921 103.485 220.389 97.5965C224.346 82.1004 224.929 80.8757 231.03 77.7917C237.055 74.6584 237.669 73.8817 235.25 72.3058C233.813 71.3701 232.568 71.6285 229.718 73.1939ZM218.437 86.3785C218.027 87.5023 217.552 89.2244 217.24 90.198C216.96 91.6198 216.76 91.5964 216.467 90.2287C215.675 87.1463 213.096 86.6425 208.356 88.7949C205.875 89.9591 200.556 91.8418 196.701 92.9664C191.378 94.5253 189.27 95.612 188.666 97.0362C188.016 98.8591 187.692 98.8616 185.744 97.058C184.53 95.9463 183.147 95.2592 182.551 95.5127C182.031 95.8155 183.876 102.9 186.789 111.321C191.191 124.563 192.369 130.358 190.577 130.794C190.079 130.898 180.261 97.8709 180.186 96.0036C180.199 95.1567 184.326 93.781 191.271 92.2099C197.346 90.8197 205.928 88.3896 210.25 86.7136C214.572 85.0375 218.352 83.8637 218.579 84.0114C218.93 84.1333 218.846 85.2547 218.437 86.3785ZM202.677 104.453C202.21 105.005 201.815 103.463 201.73 100.949C201.695 96.5405 201.792 96.3903 204.349 95.2754L207.031 94.1346L205.247 98.8551C204.309 101.452 203.22 103.951 202.677 104.453ZM209.756 116.231C205.092 129.341 202.753 135.411 202.539 134.416C202.459 134.043 202.321 131.28 202.206 128.317C202.166 123.585 202.544 122.013 205.465 116.537C207.391 113.085 210.019 108.06 211.406 105.434C215.279 98.332 214.608 102.173 209.756 116.231ZM197.288 106.61C197.354 111.467 197.39 115.875 197.297 116.349C197.203 116.822 196.305 113.243 195.189 108.345C193.499 99.8643 193.495 97.7224 195.438 97.3841C196.981 96.999 197.141 97.745 197.288 106.61ZM46.5752 15.4833C48.0249 19.2083 47.9537 19.4828 46.2061 19.5208C43.9072 19.4134 34.7202 26.9039 24.2747 37.3177C15.3812 46.1758 15.6258 45.8004 17.818 47.2286C19.1787 48.1151 23.3631 47.3118 35.3782 43.9097C55.1795 38.3076 56.6203 37.7489 56.3357 35.2106C56.1623 33.4934 56.2112 33.4183 57.2295 34.8304C57.8164 35.7475 58.8081 37.0352 59.4662 37.6779C59.9998 38.3463 60.311 39.1908 60.0665 39.5662C59.2838 40.7676 42.5596 44.952 25.7954 48.0408C6.36763 51.7473 6.67 51.9443 16.6574 40.9112C25.4131 31.1077 44.4675 11.1155 44.7699 11.3125C44.9211 11.411 45.7215 13.3228 46.5752 15.4833ZM155.164 97.8838C154.154 98.9374 148.547 105.231 142.646 111.974C128.163 128.421 121.102 136.119 120.555 136.298C120.23 136.3 119.99 135.181 120.07 133.736C119.99 131.545 120.648 130.369 123.356 127.535C125.153 125.604 128.225 122.044 130.115 119.639C132.966 116.256 133.904 115.477 135.385 116.013C136.99 116.524 137.137 116.299 137.377 113.782C137.568 111.34 138.377 110.263 144.758 103.939C148.676 100.074 151.949 96.538 151.918 96.0899C151.98 95.1679 154.999 94.996 156.258 95.7088C156.636 95.9551 156.124 96.9053 155.164 97.8838ZM41.408 33.8276C39.0201 38.1542 38.7977 38.3302 33.3238 39.7906L27.6009 41.3028L30.011 38.595C32.2255 36.1875 40.4387 28.7043 43.4802 26.5148C45.21 25.1818 44.2317 28.5016 41.408 33.8276ZM49.421 33.5935C48.5406 34.945 47.2555 35.9259 46.7041 35.7806C45.877 35.5626 46.1127 34.5397 47.5312 32.3623C48.9497 30.1849 49.7901 29.556 50.3727 30.1494C50.6795 30.6701 50.3015 32.242 49.421 33.5935ZM142.028 99.7003C138.831 103.286 138.031 103.192 138.426 99.2789C138.631 97.8079 138.76 96.2877 138.804 95.8888C138.92 95.2155 144.492 95.423 144.652 96.169C144.705 96.4177 143.478 97.971 142.028 99.7003ZM200.88 139.111C200 140.462 199.849 140.364 199.186 137.579C198.448 134.745 198.595 134.52 200.098 134.858C201.952 135.317 202.299 136.933 200.88 139.111ZM133.579 100.934C133.246 107.561 132.819 109.208 131.049 111.264C126.007 116.855 125.749 116.26 128.835 104.581C132.01 92.104 132.13 91.7544 133.264 92.4932C133.642 92.7394 133.744 96.5492 133.579 100.934ZM124.29 102.796C122.507 109.335 120.808 114.752 120.435 114.83C120.061 114.907 120.435 109.375 121.213 102.396C122.494 92.0007 123.063 89.8047 124.361 89.795C125.135 89.7643 126.238 90.055 126.616 90.3012C127.069 90.5967 125.998 96.2085 124.29 102.796ZM195.393 141.418C194.935 142.617 194.25 143.668 194.001 143.72C192.832 144.027 192.338 139 193.414 137.348C194.393 135.847 194.642 135.795 195.389 137.458C195.927 138.45 195.927 140.268 195.393 141.418ZM73.8333 72.8125C71.0719 79.0347 66.2604 88.7341 63.1388 94.1868C59.2123 101.04 57.5625 104.564 57.9983 105.383C58.4118 106.401 58.0694 106.927 55.9839 107.814C54.5431 108.373 53.2002 108.781 52.8978 108.584C52.4443 108.289 60.4129 92.0902 71.8768 70.3614C75.7455 62.9355 77.4086 60.3827 78.0133 60.7767C78.5425 61.1214 76.8616 66.0155 73.8333 72.8125ZM95.4444 75.3412C99.5132 78.8474 98.984 78.5027 91.6958 73.3268C86.8801 69.9756 82.8736 67.3654 82.7268 67.5907C82.629 67.7408 81.6996 70.9855 80.7257 74.6291C78.5868 82.5402 75.3629 89.6375 72.5036 92.3736C69.1774 95.661 69.1285 93.918 72.3658 87.7919C73.9711 84.6667 76.7815 78.3694 78.5913 73.7733C80.4278 69.3014 81.9976 65.4044 82.1932 65.1041C82.4867 64.6536 85.5416 67.0715 95.4444 75.3412ZM105.405 82.365C104.28 84.0919 77.7863 96.9916 76.8036 96.3513C75.8964 95.7604 82.0419 92.2775 89.0188 89.3364C98.1569 85.5572 102.092 82.9875 101.865 81.0216C101.723 79.7525 102.021 79.6257 103.684 80.7092C104.743 81.3986 105.552 82.1398 105.405 82.365ZM95.2754 81.2202C95.3288 81.4689 92.4517 82.91 88.9521 84.4802C85.3769 86.0013 82.4421 86.8699 82.3354 86.3726C82.2287 85.8753 82.9446 83.4541 83.8117 81.1314C84.7278 78.7336 85.6171 76.2114 85.8039 75.2636C86.0351 73.917 86.6621 74.1116 90.6508 77.2449C93.1499 79.1938 95.2221 80.9715 95.2754 81.2202Z" fill="#848484"/>
</svg>
