<svg width="224" height="174" viewBox="0 0 224 174" fill="none" xmlns="http://www.w3.org/2000/svg">
<path d="M179.002 4.49149C178.18 10.5355 174.228 25.3853 171.81 31.7774C167.286 43.7943 154.817 67.2777 152.508 68.0545C152.252 68.1409 150.799 70.0478 149.233 72.1822C147.781 74.3728 143.337 79.2718 139.377 83.0625C116.984 104.496 90.9611 113.725 54.3814 113.364C31.5439 113.107 15.3747 108.62 4.04866 99.5728C-0.487412 95.9935 -3.05383 95.4389 -3.19425 98.1335C-3.25005 99.665 2.25633 104.43 7.04826 107.073L10.2999 108.815L12.3938 124.656C15.0608 144.181 19.8435 171.125 20.8136 172.028C22.6394 173.493 25.1748 170.844 31.2964 160.464C37.7029 149.799 46.3281 132.714 50.7672 121.861L52.9014 116.604L60.7986 116.311L68.7245 116.102L73.6371 127.024C76.2933 132.937 82.1482 145.811 86.7176 155.43C91.2015 165.078 94.9999 173.255 95.1142 173.594C95.2285 173.934 96.2835 173.957 97.3951 173.583C100.046 172.691 102.351 166.81 104.679 155.059C105.559 150.319 107.974 139.107 109.962 130.023C111.979 121.024 113.768 111.629 113.966 109.104C114.276 104.651 115.244 103.285 119.52 101.846C121.401 101.213 122.428 102.002 127.421 107.224C139.691 120.208 162.2 137.595 165.45 136.501C167.416 135.84 167.388 135.755 164.496 119.804C160.429 97.2518 155.732 70.279 155.817 70.2503C155.874 70.1366 157.298 68.1446 158.921 65.613C160.488 63.195 162.054 61.0607 162.396 60.9456C162.909 60.7729 170.609 63.8547 198.046 75.234C204.463 77.8966 211.963 80.3838 214.644 80.7111C219.719 81.3669 223.34 80.8105 223.652 79.1927C223.993 77.9433 212.201 56.1944 205.178 45.2261C201.896 39.9961 196.073 31.7443 192.363 26.9417C182.659 14.2284 182.059 13.012 183.422 6.31315C184.7 -0.356899 184.471 -1.31992 181.735 -0.399181C180.11 0.147508 179.541 1.28455 179.002 4.49149ZM182.351 21.5176C182.979 22.5354 184.035 23.9764 184.606 24.8244C185.548 25.9257 185.405 26.0682 184.15 25.4504C181.241 24.1602 179.247 25.8713 177.996 30.9249C177.371 33.5935 175.551 38.9334 174.042 42.6555C171.965 47.7982 171.511 50.1256 172.253 51.4831C173.281 53.1228 173.082 53.379 170.459 53.7888C168.834 54.0519 167.438 54.7109 167.267 55.3356C167.182 55.9315 173.884 58.8763 182.297 61.8128C195.416 66.5696 200.693 69.2378 199.924 70.9146C199.697 71.3694 167.697 58.5945 166.185 57.496C165.529 56.9604 167.008 52.8698 170.082 46.4462C172.758 40.8185 176.173 32.5785 177.538 28.1482C178.903 23.7179 180.325 20.0245 180.582 19.9382C180.895 19.7382 181.723 20.4998 182.351 21.5176ZM186.76 45.089C186.903 45.7972 185.449 45.152 183.423 43.659C179.943 40.9537 179.886 40.7838 180.596 38.0865L181.364 35.2754L183.962 39.6014C185.418 41.9479 186.703 44.352 186.76 45.089ZM200.39 46.8374C207.784 58.6262 211.095 64.2247 210.183 63.7755C209.84 63.607 207.587 62.0016 205.19 60.2552C201.453 57.3526 200.454 56.0814 197.969 50.3938C196.455 46.7432 194.142 41.5651 192.942 38.8487C189.772 31.4063 192.368 34.3144 200.39 46.8374ZM185.111 50.6549C188.962 53.6136 192.443 56.3189 192.757 56.686C193.071 57.0531 189.705 55.5383 185.17 53.3769C177.469 49.4444 175.786 48.1198 176.725 46.3855C177.38 44.9361 178.065 45.2731 185.111 50.6549ZM20.1675 112.397C23.9889 113.569 24.1601 113.795 23.1063 115.19C21.5966 116.927 21.7771 128.779 23.4709 143.431C24.9063 155.901 24.7635 155.477 27.2432 154.642C28.7824 154.124 30.7467 150.343 35.5273 138.807C43.4098 119.798 43.8648 118.321 41.6969 116.971C40.2421 116.042 40.2135 115.957 41.9527 116.034C43.0362 116.142 44.6614 116.162 45.5736 116.044C46.4289 116.04 47.2845 116.32 47.4274 116.744C47.8846 118.103 40.7979 133.819 32.8268 148.887C23.6887 166.427 24.0308 166.312 21.5672 151.636C19.3045 138.688 15.4339 111.342 15.7759 111.227C15.9469 111.169 17.9431 111.727 20.1675 112.397ZM152.146 78.2931C152.347 79.7383 153.807 88.0397 155.439 96.8507C159.362 118.411 161.024 128.725 160.825 129.265C160.626 129.521 159.599 129.015 158.515 128.057C156.746 126.761 156.232 125.516 155.687 121.633C155.286 119.026 154.398 114.409 153.683 111.435C152.796 107.1 152.767 105.881 154.106 105.052C155.502 104.11 155.416 103.855 153.59 102.106C151.793 100.441 151.45 99.1387 150.445 90.2112C149.842 84.7413 149.097 79.981 148.726 79.7276C148.041 79.1071 149.778 76.6316 151.118 76.0863C151.545 75.9424 151.974 76.9328 152.146 78.2931ZM31.356 127.825C33.2699 132.381 33.2701 132.665 31.0219 137.865L28.6598 143.292L28.0297 139.723C27.5139 136.492 26.7353 125.409 26.9034 121.665C26.9302 119.481 28.9282 122.307 31.356 127.825ZM36.1408 121.393C36.6552 122.922 36.6279 124.538 36.172 124.881C35.4882 125.394 34.8318 124.575 34.003 122.112C33.1742 119.649 33.2019 118.6 34.0287 118.511C34.6275 118.593 35.6263 119.864 36.1408 121.393ZM145.426 89.7252C146.257 94.4568 145.687 95.0267 142.862 92.2898C141.835 91.2173 140.722 90.1735 140.437 89.8913C139.981 89.3831 143.598 85.1403 144.283 85.4773C144.511 85.5896 144.968 87.5156 145.426 89.7252ZM212.837 67.9877C213.352 69.5165 213.181 69.574 210.585 68.3673C207.904 67.1894 207.819 66.9346 209.015 65.9646C210.525 64.7946 212.009 65.5247 212.837 67.9877ZM141.156 97.1188C146.149 101.49 147.176 102.846 147.691 105.509C148.952 112.932 148.324 112.765 141.075 103.102C133.255 92.8754 133.055 92.5644 134.338 92.1328C134.765 91.989 137.818 94.271 141.156 97.1188ZM136.857 105.562C140.882 111.015 144.079 115.707 143.908 116.048C143.737 116.389 139.628 112.666 134.635 107.728C127.273 100.277 125.903 98.4691 126.701 97.4444C127.157 96.8183 128.068 96.1333 128.496 95.9894C129.009 95.8168 132.747 100.137 136.857 105.562ZM211.245 73.7235C211.902 74.8262 212.302 76.0153 212.188 76.2427C211.704 77.3509 207.454 74.621 206.825 72.7525C206.254 71.0539 206.368 70.8265 208.136 71.2716C209.248 71.4647 210.674 72.592 211.245 73.7235ZM82.0474 126.557C85.2169 132.582 89.8434 142.371 92.186 148.201C95.1284 155.531 96.8703 159.01 97.7828 159.176C98.8379 159.483 99.038 160.077 98.441 162.264C97.986 163.74 97.4738 165.047 97.1318 165.162C96.6187 165.335 88.8508 149.039 78.9112 126.573C75.4838 118.933 74.5122 116.045 75.1962 115.815C75.7948 115.614 78.5923 119.967 82.0474 126.557ZM97.4311 111.17C102.705 110.152 102.106 110.353 93.5264 112.862C87.9111 114.562 83.3791 116.087 83.4648 116.342C83.522 116.512 85.4914 119.253 87.7462 122.276C92.6268 128.859 96.1961 135.789 96.5699 139.729C97.0868 144.377 95.6889 143.335 92.8898 136.997C91.4332 133.799 88.2352 127.69 85.7513 123.42C83.3816 119.206 81.2974 115.559 81.1831 115.219C81.0116 114.709 84.8028 113.812 97.4311 111.17ZM109.118 107.71C109.775 109.663 103.469 138.448 102.357 138.822C101.331 139.167 102.409 132.186 104.427 124.889C107.128 115.376 107.552 110.695 105.869 109.654C104.785 108.979 104.87 108.666 106.752 108.033C107.949 107.631 109.032 107.455 109.118 107.71ZM101.939 114.948C102.167 115.06 101.514 118.211 100.576 121.93C99.5524 125.678 98.4142 128.519 97.9579 128.295C97.5015 128.07 96.0458 126.007 94.7611 123.887C93.4479 121.681 92.0205 119.42 91.3927 118.685C90.4796 117.669 91.021 117.298 95.9524 116.111C99.031 115.359 101.711 114.835 101.939 114.948Z" fill="#848484"/>
</svg>
