<svg width="54" height="38" viewBox="0 0 54 38" fill="none" xmlns="http://www.w3.org/2000/svg">
<path d="M32.5777 0.483688C32.2641 0.836788 30.9704 1.07219 28.6574 1.18989C25.5996 1.34682 24.7763 1.54298 22.2673 2.75921C20.6992 3.54388 18.6606 4.95627 17.759 5.89787C15.838 7.85953 13.2898 12.5675 12.545 15.5492C12.2313 16.6478 11.8001 17.5894 11.5257 17.5894C11.2905 17.5894 10.428 16.8832 9.64394 16.02C8.58546 14.843 8.23263 14.0976 8.23263 13.0383C8.23263 10.8412 8.82068 10.135 10.5848 10.135C11.4081 10.135 12.2313 9.93888 12.3489 9.74272C12.4666 9.50732 13.133 9.35039 13.7603 9.35039C14.5443 9.35039 14.8971 9.19345 14.7795 8.84035C14.5443 8.17339 10.5064 8.33032 7.64459 9.15422C2.5482 10.6451 0 12.6067 0 15.0784C0 17.5109 2.15617 19.2764 8.03662 21.5127L10.7808 22.572L11.0945 25.0437C11.6433 29.3985 13.1722 31.9487 16.7005 34.2635C20.7384 36.9313 26.266 38.2652 30.5391 37.559C35.3611 36.8136 39.2422 34.2242 42.3001 29.7516L43.7506 27.5938L47.2004 27.3192C49.0822 27.1622 51.1207 26.8091 51.6696 26.5345C54.4138 25.2006 53.9433 21.9442 50.7287 20.061C49.7094 19.4333 48.4157 18.5702 47.8277 18.0602C47.2396 17.5894 46.4948 17.197 46.1812 17.197C45.8283 17.197 45.5147 16.3731 45.2011 14.8823C44.221 9.74272 41.124 4.95627 36.694 1.85685C33.793 -0.183273 33.2834 -0.37944 32.5777 0.483688ZM33.2442 2.87691C36.0668 3.46541 36.3804 3.62234 38.1053 5.4663C41.8296 9.42885 44.0642 16.0593 43.2801 20.9634L42.9273 23.2782L38.2229 23.1605C32.3817 23.0035 26.7365 22.1796 20.8168 20.728C13.2898 18.8056 13.4466 18.9625 15.054 14.7253C17.759 7.54566 21.4833 3.81851 27.0501 2.71998C29.5983 2.20995 29.9119 2.20995 33.2442 2.87691ZM6.07647 14.3722C6.35089 15.5885 8.78148 18.1779 10.1928 18.7663C11.2905 19.2371 11.8001 20.4141 11.0553 20.8849C10.5848 21.1596 4.42994 18.1386 3.33226 17.0401C1.88174 15.5885 2.07776 14.3722 4.03791 12.6852L5.68444 11.2728L5.80205 12.3713C5.84125 12.9598 5.99806 13.8622 6.07647 14.3722ZM48.2197 20.3749C49.3174 21.0419 50.3367 21.905 50.5327 22.2581C50.8855 22.8466 50.6111 22.9251 47.9453 23.0428C45.3579 23.1212 45.0051 23.0428 45.2403 22.4935C45.3579 22.1404 45.4755 21.238 45.4755 20.4926C45.4755 19.7472 45.6323 19.1587 45.8675 19.1587C46.0635 19.1587 47.122 19.7079 48.2197 20.3749ZM17.1317 21.3165C22.8162 22.9643 30.7352 24.259 36.7724 24.5336C39.8303 24.6513 42.3393 24.8867 42.3393 25.0044C42.3393 25.1221 42.1824 25.4752 41.9864 25.7891C41.4376 26.6522 31.676 26.103 25.0899 24.8867C17.6022 23.4743 13.329 22.1012 13.329 21.1203C13.329 20.6888 13.4074 20.3357 13.525 20.3357C13.6426 20.3357 15.25 20.7672 17.1317 21.3165ZM19.0135 25.0437C24.2275 26.3776 30.3431 27.2799 36.5372 27.633L41.124 27.9077L39.9479 29.6339C38.3405 31.9487 35.4003 34.2242 32.6561 35.2443C30.7744 35.9505 29.7943 36.0682 27.2461 35.9112C19.9151 35.5189 14.2307 31.3994 13.3682 25.9068C13.0154 23.7097 13.1722 23.3174 14.0739 23.7097C14.4267 23.8274 16.6613 24.4552 19.0135 25.0437ZM50.5327 24.8475C49.9446 25.4752 44.8482 26.5345 44.4954 26.1422C44.3778 26.0245 44.3778 25.6714 44.5346 25.3183C44.7698 24.6906 45.9459 24.4552 49.3958 24.3375C50.9639 24.259 51.0815 24.3375 50.5327 24.8475Z" fill="#848484"/>
</svg>
