<svg width="28" height="37" viewBox="0 0 28 37" fill="none" xmlns="http://www.w3.org/2000/svg">
<path d="M11.8342 0.626579C11.3444 1.11811 10.9945 2.31184 10.9945 3.36512C10.9945 8.14001 6.86637 15.0215 2.52831 17.4791C-1.18004 19.6559 -0.830199 21.0603 3.71778 21.622C5.60694 21.9029 7.91591 22.4647 8.68556 23.0264C10.6447 24.2201 12.8837 28.2928 13.4434 31.7336C14.2131 36.368 14.493 37 15.8924 37C17.2917 37 17.5016 36.4382 18.3413 31.0314C19.2509 24.7819 20.9301 21.271 24.7784 17.4791C28.6967 13.6873 28.9765 12.4234 25.9679 12.4234C21.3499 12.4234 17.2218 8.98264 15.3326 3.646C14.0032 -0.00539017 13.1636 -0.707581 11.8342 0.626579ZM19.041 13.5469C20.2304 14.2491 21.21 14.881 21.3499 14.9512C21.4899 15.0215 20.5803 16.5663 19.4608 18.392C18.2713 20.2879 16.9419 22.886 16.5221 24.1499L15.7524 26.6076L14.493 24.501C13.2335 22.3945 10.2948 20.0772 7.91591 19.2346C6.79641 18.7431 6.86637 18.4622 9.03541 16.0748C10.2948 14.6704 11.8342 12.4234 12.3239 11.1594L13.3035 8.8422L15.1227 10.5275C16.1023 11.5105 17.9215 12.8447 19.041 13.5469Z" fill="#848484"/>
</svg>
