<svg width="45" height="53" viewBox="0 0 45 53" fill="none" xmlns="http://www.w3.org/2000/svg">
<path d="M35.4613 19.7927C35.221 19.6028 35.1046 19.1737 35.1485 18.8712C35.1851 18.4956 34.4037 15.4505 33.3747 12.1423C31.4514 5.76729 31.0308 2.26565 32.0804 0.937505C33.1301 -0.390635 33.7053 0.198802 33.9261 2.80077C34.0309 4.23224 34.7758 7.65297 35.5755 10.5103C36.4081 13.326 37.1678 16.1517 37.3387 16.7587C37.5675 17.951 36.102 20.2991 35.4613 19.7927Z" fill="#848484"/>
<path d="M24.9402 32.4105C24.4175 32.7956 23.4474 32.1916 19.6627 29.2734C14.456 25.3005 10.402 20.8163 10.6592 19.5147C10.9932 17.7577 11.9655 18.0926 13.9046 20.4886C14.969 21.7786 17.9445 24.4811 20.4704 26.4636C26.2279 31.035 26.4259 31.3302 24.9402 32.4105Z" fill="#848484"/>
<path d="M16.6215 49.9198C16.3922 50.188 13.1382 50.5736 9.40313 50.7617C5.67322 50.9015 2.0871 51.1054 1.53078 51.1438C0.363374 51.2635 -0.229008 50.225 0.340889 49.1149C0.660918 48.4661 14.2111 47.5659 15.9623 48.0936C16.9791 48.4457 17.2548 49.1579 16.6215 49.9198Z" fill="#848484"/>
</svg>
