<svg width="157" height="48" viewBox="0 0 157 48" fill="none" xmlns="http://www.w3.org/2000/svg">
<path d="M124.024 0.557892C115.701 2.22486 107.061 7.22575 100.72 14.0524L97.9452 17.0291L95.8842 16.6322C91.0884 15.7193 81.8141 16.2353 73.8872 17.9023C64.0183 19.9264 56.0519 22.9031 42.9726 29.5313C28.5062 36.8342 22.2043 39.0568 14.7531 39.5331C8.64946 39.93 5.39946 38.5805 3.29885 34.7703C2.26837 32.9446 2.14946 32.3096 2.14946 29.3329C2.1891 26.5149 2.34764 25.5624 3.25922 23.5779C3.89337 22.2681 4.80495 20.5218 5.35983 19.728C7.02446 17.3069 5.59763 16.4734 3.6952 18.696C1.59459 21.2362 0.247026 24.8082 0.0488552 28.42C-0.18895 32.7462 0.405562 34.81 2.62507 37.2708C5.20129 40.1284 7.65861 41.0016 13.247 41.0016C21.2927 40.9619 28.7836 38.5012 44.0427 30.8808C54.1098 25.8402 58.5092 23.9748 65.3263 21.7918C75.9482 18.3785 88.75 16.6322 94.4177 17.7832C95.6464 18.061 96.6769 18.3388 96.6769 18.4579C96.6769 18.5373 95.7653 20.1646 94.6952 22.0697C90.0976 30.087 88.8689 37.2311 91.1677 42.4304C94.5366 50.0508 103.89 49.8127 108.963 41.9542C114.393 33.5797 111.46 23.2207 102.424 18.8151C101.235 18.2198 100.244 17.5847 100.244 17.4657C100.244 16.8703 107.259 10.3612 109.756 8.61488C113.323 6.11444 118.198 3.73306 122.32 2.50269C125.134 1.6692 126.68 1.47075 130.366 1.43106C137.064 1.39137 141.582 2.93927 144.872 6.39227C148.439 10.0834 149.311 13.8142 148.637 22.149C148.399 25.1258 148.201 27.9834 148.201 28.4597C148.201 29.3329 148.043 29.3726 145.902 29.2932C143.524 29.2138 141.701 29.8488 141.979 30.6426C142.058 30.9205 142.454 31.1189 142.89 31.1189C144.436 31.1189 148.281 40.0491 148.835 45.0103C149.351 49.2174 150.857 48.8602 152.561 44.0974C154.067 39.8903 156.366 32.4287 156.723 30.4045L157 28.936H153.75H150.5L150.777 22.0697C150.936 17.7038 150.857 14.4493 150.619 13.0998C148.915 4.52686 141.899 -0.116833 130.802 0.00223541C128.503 0.00223541 125.451 0.280064 124.024 0.557892ZM102.424 20.7996C109.994 25.5624 111.698 35.0879 106.268 42.232C103.216 46.2406 99.8476 47.6298 96.7958 46.0422C91.3263 43.2639 90.8506 34.5322 95.6464 24.7686C97.8263 20.3233 98.8567 18.9739 99.7683 19.2914C100.125 19.4502 101.354 20.1249 102.424 20.7996ZM154.424 31.0792C154.305 31.3967 153.988 32.4287 153.75 33.3812C153.156 35.7229 150.936 42.4304 150.777 42.4304C150.698 42.4304 150.341 41.3985 149.985 40.1284C149.628 38.8981 148.637 36.3579 147.765 34.5322C146.933 32.7065 146.22 31.1586 146.22 31.0792C146.22 30.8808 148.915 30.6823 151.927 30.6029C154.146 30.5236 154.582 30.6426 154.424 31.0792Z" fill="#848484"/>
</svg>
