<svg width="168" height="194" viewBox="0 0 168 194" fill="none" xmlns="http://www.w3.org/2000/svg">
<path d="M164.706 0.915486C164.173 1.44865 161.613 4.541 158.946 7.73999C156.332 10.939 151.052 16.7505 147.265 20.5893C141.985 26.0275 140.598 27.7337 141.291 28.0002C142.571 28.4801 144.491 27.8936 150.092 25.2278C152.812 23.9482 155.159 22.8819 155.266 22.8819C155.532 22.8819 153.025 29.8663 150.999 34.8781C145.665 47.7806 137.184 59.1904 130.09 62.9758C127.05 64.6286 122.463 65.8016 121.77 65.1085C121.503 64.8419 121.663 62.9225 122.143 60.6832C125.823 42.449 122.516 30.3462 113.876 30.3462C110.942 30.3462 109.182 31.6791 107.635 34.9847C106.888 36.5842 106.728 38.5569 106.675 44.7416C106.675 51.5661 106.835 52.8457 107.849 55.4049C109.502 59.4036 112.649 63.4024 115.369 64.9485C117.503 66.0682 117.663 66.2815 117.289 67.8809C116.703 70.8133 113.982 77.4246 111.902 80.9968C109.022 86.0085 102.141 92.7264 97.7678 94.8058C92.3273 97.3649 92.4873 97.5249 92.914 89.9006C93.7141 74.2789 90.4605 61.323 85.0734 58.6039C80.5931 56.3113 74.0859 58.2307 70.9923 62.7626C69.6055 64.7353 69.3922 65.5883 69.1788 69.6937C69.0188 72.8927 69.2322 75.3986 69.8722 77.7978C71.1523 82.9695 74.5659 89.5807 77.3395 92.4065C79.8463 95.019 85.4468 98.0581 87.687 98.0581C88.8604 98.0581 88.9137 98.1647 88.5404 100.564C87.9536 104.403 85.3934 111.867 82.8866 116.772C79.4196 123.757 76.166 128.395 71.5257 132.98C66.5119 137.939 62.725 140.018 57.8179 140.551C54.7243 140.871 54.511 140.818 54.831 139.858C55.0444 139.325 55.9511 136.659 56.9112 134.047C58.3513 129.941 58.618 128.342 58.8313 123.063C58.938 119.598 58.778 115.599 58.458 113.946C57.2312 108.028 52.9642 101.257 49.2839 99.3376C48.4305 98.9111 46.5637 98.5912 45.0702 98.5912C41.7633 98.5912 40.0032 99.4443 37.4963 102.217C34.8828 105.096 33.7093 108.988 33.7093 114.586C33.656 124.823 39.5765 135.753 47.6304 140.285C49.3372 141.298 50.244 142.097 50.0306 142.471C46.8837 147.802 41.87 154.68 38.0297 159.052L36.2162 161.131L28.1622 156.28C23.7886 153.56 19.8416 151.375 19.4149 151.375C18.9882 151.375 16.588 153.187 14.1345 155.427C11.6276 157.666 7.46726 161.185 4.80038 163.211C2.18684 165.29 0 167.209 0 167.583C0 168.169 1.38678 168.916 11.4676 173.607C14.8278 175.154 17.6547 176.753 17.7614 177.126C17.8147 177.446 16.908 181.072 15.7346 185.124C14.5612 189.176 13.6011 192.855 13.6011 193.335C13.6011 194.081 14.0811 194.134 16.8547 193.814C23.7352 193.121 36.6429 186.403 37.3363 183.204C37.443 182.565 37.7097 177.766 37.8163 172.488L38.1364 162.997L40.9633 159.692C44.8569 155.213 48.2172 150.735 50.9374 146.309L53.2309 142.577L57.0179 142.524C61.8716 142.417 65.5519 141.031 70.4056 137.406C78.9929 130.901 87.687 116.612 90.6739 103.87C91.954 98.5912 92.1673 98.2713 94.5142 97.8448C97.5011 97.3649 102.568 94.8058 105.982 92.0333C111.529 87.4481 116.809 79.0241 119.743 70.1736C120.703 67.1345 121.076 66.6014 121.93 66.8679C123.53 67.4011 128.81 66.1748 132.01 64.5753C135.531 62.8692 141.611 56.9511 144.705 52.3659C148.065 47.4074 152.385 38.8768 155.212 31.6791C156.599 28.1602 157.826 25.1745 157.933 25.0678C158.253 24.6946 159.266 27.7337 160.653 33.2786C161.453 36.211 162.253 38.8235 162.466 39.0367C162.68 39.3033 163.32 39.3566 163.853 39.1967C164.92 38.8768 165.666 36.3709 167.32 27.6803C168.227 22.8819 168.227 2.78156 167.32 1.12875C166.52 -0.310792 165.933 -0.364108 164.706 0.915486ZM165.293 9.81933C165.506 12.3252 165.506 15.8441 165.346 17.6569C164.706 24.8013 163.853 30.8793 163.533 30.8793C163.213 30.8793 160.066 22.0821 159.533 19.5229C159.266 18.4566 158.893 18.0834 157.879 18.0834C157.132 18.0834 156.546 18.4033 156.546 18.7765C156.546 19.1497 154.732 20.3227 152.492 21.4423L148.492 23.415L154.466 16.9104C157.719 13.2849 161.293 9.23285 162.36 7.84662C163.426 6.4604 164.44 5.34075 164.6 5.28744C164.76 5.28744 165.08 7.31346 165.293 9.81933ZM116.703 33.5452C117.449 34.1316 118.623 35.7311 119.316 37.1707C120.436 39.41 120.543 40.423 120.543 46.8743C120.543 54.7651 119.103 63.9355 117.876 63.9355C116.596 63.9355 112.702 59.5636 111.422 56.7378C108.275 49.5934 108.489 38.0771 111.796 33.8651C113.129 32.2122 114.836 32.1056 116.703 33.5452ZM83.6866 60.2567C85.6068 61.8029 86.8869 64.4154 88.2203 69.907C90.0871 77.2113 90.6205 87.768 89.5538 94.6991C89.2337 96.8318 88.487 96.8851 84.8067 95.179C75.6327 90.9137 68.9655 73.0526 73.3392 64.4687C75.7927 59.7235 80.5397 57.8041 83.6866 60.2567ZM49.1772 102.27C51.8441 104.189 54.2443 108.828 55.5244 114.426C57.0179 121.197 55.9511 129.941 52.8042 136.872L51.5241 139.698L49.7639 138.792C46.617 137.192 44.1635 134.9 41.6566 131.221C38.083 126.049 36.4296 120.824 36.3762 114.799C36.2695 110.374 36.4296 109.734 38.083 106.375C40.9099 100.617 44.8569 99.1244 49.1772 102.27ZM28.0022 158.572C31.3625 160.598 34.2427 162.304 34.4027 162.411C34.5094 162.518 33.7627 163.477 32.6959 164.544L30.7224 166.463L26.2954 163.904C21.9217 161.345 16.268 157.453 16.268 156.973C16.268 156.813 17.068 156.013 18.0281 155.107C19.5215 153.774 19.8949 153.667 20.8017 154.254C21.3884 154.627 24.642 156.546 28.0022 158.572ZM16.8547 160.598C19.8949 162.891 24.0019 165.45 26.5621 166.623C28.7489 167.689 28.909 168.009 27.7355 168.969C27.0421 169.555 25.762 169.129 20.1083 166.356C16.3746 164.544 12.7477 162.678 12.0543 162.198L10.7209 161.345L12.321 160.118C13.1744 159.425 14.0278 158.839 14.1878 158.839C14.3478 158.839 15.5746 159.639 16.8547 160.598ZM16.8547 166.943C21.2284 169.076 24.802 170.995 24.802 171.155C24.802 171.368 23.6285 172.275 22.1351 173.234C20.2149 174.461 19.2015 174.834 18.2948 174.514C15.7346 173.767 3.46694 167.689 3.57362 167.316C3.73363 166.943 8.32066 163.157 8.74736 163.157C8.85404 163.104 12.5343 164.864 16.8547 166.943ZM34.3494 182.938C33.7093 184.484 32.4292 185.817 31.9492 185.39C31.4692 184.911 33.4427 167.636 34.0294 166.89C34.9361 165.823 35.2028 180.858 34.3494 182.938ZM29.9224 173.607C29.7624 175.314 29.389 179.099 29.069 181.978C28.5889 187.416 28.2156 188.269 25.9754 188.963C24.9086 189.282 24.7486 189.176 24.962 188.323C25.122 187.79 25.8687 184.111 26.6688 180.165C28.1622 172.328 28.6956 170.568 29.6557 170.568C30.0824 170.568 30.1891 171.475 29.9224 173.607ZM23.4685 181.498C22.6685 185.284 22.1884 188.909 22.3484 189.549C22.6685 190.669 22.3484 190.882 19.8949 191.628C18.4015 192.055 17.068 192.322 16.9613 192.215C16.8547 192.108 17.7614 188.536 18.9882 184.217C21.015 177.233 21.3884 176.327 22.8818 175.42C23.7886 174.834 24.5886 174.461 24.6953 174.514C24.7486 174.62 24.2153 177.766 23.4685 181.498Z" fill="#848484"/>
</svg>
