<svg width="32" height="46" viewBox="0 0 32 46" fill="none" xmlns="http://www.w3.org/2000/svg">
<path d="M25.0573 1.5079C31.7963 5.20219 33.7752 7.45089 30.3522 7.45089C29.6034 7.45089 28.8012 6.96902 28.4803 6.38008C27.9454 5.36281 23.7737 2.84641 23.3458 3.27473C23.2388 3.38182 23.7737 6.96902 24.469 11.1987C25.913 19.7652 25.8061 20.4077 22.9714 19.2833C17.73 17.1417 9.76085 14.5182 9.76085 14.893C9.76085 15.1072 11.4189 18.855 13.5047 23.1918C15.5371 27.475 17.2486 31.1158 17.2486 31.2228C17.2486 32.0795 14.8418 31.8118 9.97479 30.4197C6.81923 29.5631 4.03806 28.9206 3.82412 28.9741C3.12883 29.2418 6.81923 37.2729 9.49343 41.2884C11.9537 44.9827 12.1142 46 10.2957 46C8.42375 46 0.82901 32.3472 0.0267487 27.5286C-0.240669 25.9223 1.47082 25.9223 6.33787 27.475C12.649 29.456 12.9699 29.5095 12.9699 28.9741C12.9699 28.7064 11.3119 25.0122 9.2795 20.7825C7.19362 16.3921 5.80303 12.8585 6.07045 12.5908C6.60529 12.0018 14.414 13.9293 18.9601 15.7497C20.6181 16.4457 22.0622 16.874 22.2226 16.7669C22.3296 16.6598 21.8483 13.2333 21.2064 9.16418C20.5112 5.14865 19.9228 1.40082 19.9228 0.865417C19.9228 -0.473095 21.9017 -0.258934 25.0573 1.5079Z" fill="#848484"/>
</svg>
