<svg width="20" height="20" viewBox="0 0 20 20" fill="none" xmlns="http://www.w3.org/2000/svg">
<path d="M9.78049 18.7805C10.9338 18.782 12.076 18.5555 13.1415 18.1142C14.207 17.6728 15.1747 17.0253 15.9892 16.2087C16.8057 15.3943 17.4533 14.4265 17.8947 13.361C18.336 12.2955 18.5625 11.1533 18.561 10C18.5624 8.84672 18.336 7.70451 17.8946 6.63902C17.4533 5.57353 16.8057 4.60576 15.9892 3.79132C15.1747 2.97475 14.207 2.32718 13.1415 1.88582C12.076 1.44446 10.9338 1.21803 9.78049 1.21952C8.62721 1.21805 7.485 1.4445 6.41951 1.88585C5.35402 2.32721 4.38625 2.97477 3.57181 3.79132C2.75526 4.60576 2.1077 5.57353 1.66634 6.63902C1.22499 7.70451 0.998537 8.84672 1.00001 10C0.998513 11.1533 1.22495 12.2955 1.66631 13.361C2.10766 14.4265 2.75524 15.3943 3.57181 16.2087C4.38625 17.0252 5.35402 17.6728 6.41951 18.1142C7.485 18.5555 8.62721 18.782 9.78049 18.7805Z" stroke="black" stroke-width="1.7561" stroke-linejoin="round"/>
<mask id="mask0_611_483" style="mask-type:luminance" maskUnits="userSpaceOnUse" x="0" y="0" width="20" height="20">
<path d="M9.78049 18.7805C10.9338 18.782 12.076 18.5555 13.1415 18.1142C14.207 17.6728 15.1747 17.0253 15.9892 16.2087C16.8057 15.3943 17.4533 14.4265 17.8947 13.361C18.336 12.2955 18.5625 11.1533 18.561 10C18.5624 8.84672 18.336 7.70451 17.8946 6.63902C17.4533 5.57353 16.8057 4.60576 15.9892 3.79132C15.1747 2.97475 14.207 2.32718 13.1415 1.88582C12.076 1.44446 10.9338 1.21803 9.78049 1.21952C8.62721 1.21805 7.485 1.4445 6.41951 1.88585C5.35402 2.32721 4.38625 2.97477 3.57181 3.79132C2.75526 4.60576 2.1077 5.57353 1.66634 6.63902C1.22499 7.70451 0.998537 8.84672 1.00001 10C0.998513 11.1533 1.22495 12.2955 1.66631 13.361C2.10766 14.4265 2.75524 15.3943 3.57181 16.2087C4.38625 17.0252 5.35402 17.6728 6.41951 18.1142C7.485 18.5555 8.62721 18.782 9.78049 18.7805Z" fill="white" stroke="white" stroke-width="1.7561" stroke-linejoin="round"/>
<path d="M6.26831 9.99999L8.90246 12.6341L14.1707 7.36584" stroke="black" stroke-width="1.7561" stroke-linecap="round" stroke-linejoin="round"/>
</mask>
<g mask="url(#mask0_611_483)">
<path d="M-0.756104 -0.536591H20.3171V20.5366H-0.756104V-0.536591Z" fill="black"/>
</g>
</svg>
