<svg width="100" height="100" viewBox="0 0 100 100" fill="none" xmlns="http://www.w3.org/2000/svg">
<path d="M0 16C0 7.16345 7.16344 0 16 0H84C92.8366 0 100 7.16344 100 16V84C100 92.8366 92.8366 100 84 100H16C7.16345 100 0 92.8366 0 84V16Z" fill="#FCF4F0"/>
<path d="M21.7025 32.3775H17.64C16.9683 32.3775 16.5567 32.3233 16.405 32.215C16.275 32.085 16.21 31.6842 16.21 31.0125V26.04C16.21 25.4117 16.3508 25.0867 16.6325 25.065C16.9142 25.0217 17.3367 25 17.9 25H38.8625C39.6208 25 40.1408 25.0867 40.4225 25.26C40.7042 25.4333 40.8883 25.6933 40.975 26.04C41.0833 26.3867 41.2242 26.8308 41.3975 27.3725L49.23 51.4875C49.5333 52.4192 49.7717 53.2967 49.945 54.12C50.14 54.9217 50.3783 55.3225 50.66 55.3225C50.985 55.3225 51.245 55.0842 51.44 54.6075C51.635 54.1092 51.9058 53.3833 52.2525 52.43L61.58 26.2675C61.7967 25.7042 61.9808 25.3575 62.1325 25.2275C62.2842 25.0758 62.75 25 63.53 25H82.0875C82.8242 25 83.3333 25.0325 83.615 25.0975C83.9183 25.1408 84.07 25.5525 84.07 26.3325V30.72C84.07 31.5 84.005 31.9767 83.875 32.15C83.7667 32.3017 83.3117 32.3775 82.51 32.3775H78.5125C77.8408 32.3775 77.4508 32.4642 77.3425 32.6375C77.2342 32.8108 77.1908 33.2225 77.2125 33.8725L78.35 65.04C78.3717 65.5817 78.415 65.9392 78.48 66.1125C78.5667 66.2858 78.9133 66.3725 79.52 66.3725H84.59C85.1533 66.3725 85.4892 66.4483 85.5975 66.6C85.7275 66.73 85.7925 67.0875 85.7925 67.6725V72.06C85.7925 72.7317 85.7167 73.1867 85.565 73.425C85.435 73.6417 85.0233 73.75 84.33 73.75H60.93C60.28 73.75 59.8575 73.6633 59.6625 73.49C59.4892 73.295 59.4025 72.8508 59.4025 72.1575V67.9C59.4025 67.185 59.5108 66.7517 59.7275 66.6C59.9442 66.4483 60.3883 66.3725 61.06 66.3725H64.9275C65.5992 66.3725 66.0325 66.2642 66.2275 66.0475C66.4442 65.8308 66.5417 65.4083 66.52 64.78L65.9025 45.1825C65.8808 43.9258 65.9133 42.6908 66 41.4775C66.0867 40.2425 66.13 39.2242 66.13 38.4225C66.13 37.6208 65.9675 37.22 65.6425 37.22C65.3825 37.22 65.1658 37.4042 64.9925 37.7725C64.8192 38.1192 64.6458 38.6283 64.4725 39.3C64.2992 39.95 64.05 40.7083 63.725 41.575L53.065 73.1C52.8483 73.7283 52.61 74.14 52.35 74.335C52.1117 74.53 51.57 74.6275 50.725 74.6275H46.0125C45.1242 74.6275 44.5392 74.5083 44.2575 74.27C43.9758 74.0533 43.7267 73.62 43.51 72.97L32.915 41.965C32.6767 41.2283 32.4492 40.3833 32.2325 39.43C32.0158 38.4767 31.7992 37.6425 31.5825 36.9275C31.3658 36.1908 31.1167 35.8225 30.835 35.8225C30.5967 35.8225 30.4558 36.0933 30.4125 36.635C30.3692 37.1767 30.315 38.1192 30.25 39.4625L29.145 64.0975C29.1233 64.9208 29.1775 65.5058 29.3075 65.8525C29.4375 66.1992 29.9575 66.3725 30.8675 66.3725H35.06C35.6883 66.3725 36.0892 66.4592 36.2625 66.6325C36.4358 66.7842 36.5225 67.185 36.5225 67.835V72.19C36.5225 72.9267 36.3925 73.3708 36.1325 73.5225C35.8725 73.6742 35.385 73.75 34.67 73.75H15.625C14.91 73.75 14.455 73.6633 14.26 73.49C14.0867 73.295 14 72.8292 14 72.0925V67.575C14 67.0767 14.065 66.7517 14.195 66.6C14.325 66.4483 14.6283 66.3725 15.105 66.3725H20.045C20.9117 66.3725 21.3883 66.1992 21.475 65.8525C21.5617 65.4842 21.6158 64.9208 21.6375 64.1625L23.23 33.5475C23.2733 32.9408 23.1867 32.5942 22.97 32.5075C22.7533 32.4208 22.3308 32.3775 21.7025 32.3775Z" fill="black"/>
</svg>
