<svg width="224" height="392" viewBox="0 0 224 392" fill="none" xmlns="http://www.w3.org/2000/svg">
<path d="M164.814 4.0679C157.074 6.07172 129.393 12.903 103.351 19.3699L56.0025 31.0285L49.1733 36.3113C45.44 39.226 42.2531 41.9585 42.071 42.4139C41.7978 42.9604 54.7277 113.003 56.822 122.749C57.0951 123.66 55.5472 128.123 53.544 132.768C44.7116 153.171 40.6141 174.029 40.6141 198.53C40.6141 215.745 40.9783 218.933 45.9864 246.349C52.1781 280.141 52.3602 281.234 52.2692 300.543C52.2692 317.212 52.0871 319.489 49.9017 327.504C47.1701 337.523 42.3441 347.907 37.154 354.829C34.7865 357.835 33.876 359.838 34.4223 360.385C36.2434 362.207 38.884 360.021 43.4368 353.098C52.3602 339.436 56.2756 325.591 57.0951 305.098C57.6415 289.249 56.7309 280.869 50.6302 247.26C44.1652 211.555 43.2547 193.156 46.8969 171.205C48.8091 159.365 56.6399 133.406 58.2789 133.406C58.552 133.406 60.191 140.784 61.9211 149.71C65.017 165.558 65.017 166.105 63.469 168.564C61.2837 172.207 56.4577 184.868 56.4577 187.145C56.4577 188.329 57.0951 188.967 58.1878 188.967C59.3715 188.967 60.3731 187.509 61.9211 183.228C71.4819 156.814 84.3208 150.074 108.997 158.454C120.561 162.37 123.293 163.919 124.658 166.833C126.024 169.93 124.112 174.211 119.377 178.219C114.642 182.318 107.995 184.412 100.073 184.412C93.7905 184.412 93.7905 184.412 93.7905 186.872C93.7905 189.058 90.9678 198.075 88.8735 202.72C88.4183 203.813 90.1483 204.997 96.7954 208.276C111 215.381 121.107 226.128 124.84 238.243C126.935 244.983 127.026 255.366 125.114 260.467C123.11 265.567 123.11 267.662 125.023 268.027C127.117 268.482 130.213 261.651 130.85 255.093L131.305 250.357L144.235 245.894C151.247 243.434 157.62 241.248 158.349 241.066C160.079 240.429 158.895 249.173 155.981 258.645C151.793 272.034 144.873 283.784 135.039 294.714C129.757 300.543 129.575 300.908 128.938 307.01C127.026 326.411 121.016 352.279 113.276 375.049C110.272 383.702 108.542 389.896 109.088 390.442C111 392.355 112.821 389.623 116.463 379.512C123.93 358.745 129.12 337.705 132.398 314.934L134.401 301.09L139.409 295.807C150.973 283.693 158.895 268.118 162.537 250.721C163.266 247.26 163.903 243.252 163.903 241.795C163.903 239.7 164.45 239.062 166.908 238.151C168.456 237.605 181.568 233.051 196.046 228.132C210.433 223.123 222.634 218.842 223.089 218.569C223.636 218.295 224 217.202 224 216.2C224 215.199 220.54 196.709 216.26 175.031C212.072 153.353 206.973 127.303 204.969 117.011C191.129 45.9661 182.934 4.25006 182.57 2.42841C181.932 -0.121918 181.659 -0.121918 164.814 4.0679ZM178.927 6.98257C179.11 8.16666 183.025 28.1138 187.578 51.4311C192.131 74.7484 196.228 95.6064 196.683 97.8835C197.139 100.161 200.417 116.92 203.968 135.228C207.519 153.535 212.254 177.672 214.439 188.967C216.624 200.261 218.628 210.918 218.901 212.648L219.447 215.836L175.558 230.956L131.579 246.076L130.213 240.52C129.393 237.423 127.663 232.778 126.297 230.045C124.84 227.404 123.93 225.035 124.112 224.762C124.385 224.58 141.868 218.842 163.084 212.102C184.3 205.453 201.965 199.532 202.42 199.077C202.875 198.621 199.87 180.04 194.862 153.353C187.214 112.092 171.916 31.9393 170.732 27.0208C169.913 23.7419 173.1 23.1953 101.986 39.6814C77.6737 45.3286 78.129 45.1464 78.6753 48.8808C78.9485 50.5203 80.2233 58.4445 81.498 66.4598C84.5029 85.2229 87.4166 101.527 92.5158 127.486C94.7921 138.962 96.7043 148.981 96.7954 149.619C96.8864 150.438 95.1564 150.894 91.0589 151.167C87.7809 151.349 84.3208 151.714 83.4102 151.805C81.8623 152.078 81.498 150.894 79.9501 142.97C79.0395 137.96 76.49 124.389 74.3046 112.912C64.5617 61.9057 59.8268 35.0362 60.3731 34.4897C60.9195 33.9431 175.103 5.16089 177.288 5.06982C177.926 4.97873 178.654 5.88956 178.927 6.98257ZM167.363 33.9431C167.181 34.9451 166.271 34.6718 163.994 32.668L160.807 30.0266L163.539 29.5712C165.542 29.2068 166.362 29.4801 166.908 30.8463C167.272 31.8482 167.454 33.2145 167.363 33.9431ZM162.902 35.6737C167.272 39.0438 168.729 40.7744 169.458 43.5069C170.004 45.5107 170.186 47.2413 170.004 47.4235C169.822 47.6967 165.451 44.4177 160.443 40.319C154.16 35.3094 151.52 32.668 152.339 32.1215C154.707 30.5731 157.438 31.575 162.902 35.6737ZM158.986 42.9604C170.641 52.433 171.188 52.9795 172.098 57.2604C172.645 59.7197 172.918 61.8146 172.736 61.9968C172.554 62.27 142.961 38.5884 139.409 35.4005C139.136 35.1272 144.326 33.4877 146.056 33.3056C146.512 33.2145 152.339 37.5865 158.986 42.9604ZM146.603 45.1464C152.886 50.247 161.627 57.3515 165.998 60.9037C170.368 64.3649 174.193 68.0993 174.375 69.1923C175.285 73.291 184.209 120.381 189.854 150.712C198.322 196.253 198.413 196.709 198.231 196.8C198.14 196.891 191.311 199.077 183.025 201.718C174.739 204.269 157.985 209.642 145.692 213.559C133.4 217.476 122.928 220.846 122.382 221.028C121.836 221.119 119.286 219.388 116.737 216.929C112.093 212.648 112.093 212.648 110.181 202.811C109.179 197.437 108.086 191.972 107.813 190.697C107.358 188.511 107.722 188.147 111.637 186.781C114.005 185.961 116.008 185.323 116.19 185.323C116.281 185.323 116.554 186.872 116.919 188.876C117.192 190.788 118.193 193.247 119.013 194.34L120.652 196.253L142.961 189.513C155.253 185.87 168.547 181.862 172.554 180.769C176.56 179.585 180.293 178.31 180.84 177.854C182.023 177.035 177.471 153.9 175.832 152.26C174.739 151.167 160.807 154.446 142.141 160.366L129.12 164.465L127.117 162.552L125.023 160.731L129.484 144.063C131.852 134.954 133.855 126.484 133.855 125.208C133.855 123.933 134.31 121.474 134.766 119.652C135.676 116.556 135.949 116.282 140.411 115.827C150.245 114.643 159.988 107.356 164.176 98.0656C165.633 94.7867 166.089 91.9631 166.089 86.0427C166.089 79.3026 165.724 77.572 163.448 72.9267C158.349 62.8165 148.242 56.805 136.04 56.6228C125.114 56.5318 115.189 62.5432 109.634 72.5624C107.267 76.9344 106.994 78.2095 106.994 86.0427C106.994 93.6026 107.267 95.2421 109.452 99.2497C110.727 101.8 113.914 105.808 116.554 108.267C120.925 112.366 121.198 112.912 120.652 115.736C120.379 117.466 119.377 119.561 118.467 120.472C117.465 121.292 114.278 128.943 111.364 137.505C106.72 150.803 105.719 152.989 104.171 152.716C103.26 152.533 102.35 152.26 102.168 152.078C100.802 150.803 83.7744 56.9872 83.7744 50.6114C83.7744 47.6056 81.3159 48.4254 116.099 40.319C122.655 38.8616 128.938 37.3132 130.213 36.8578C131.488 36.4024 133.127 36.0381 133.855 36.0381C134.583 35.947 140.32 40.1368 146.603 45.1464ZM58.8252 54.2547C60.5553 63.4541 64.0154 81.8529 66.4739 95.0599L70.9356 119.106L68.6592 124.48C66.1096 130.491 64.4706 133.406 63.6511 133.406C63.378 133.406 62.8316 131.493 62.4674 129.034C62.1943 126.666 60.2821 116.373 58.2789 106.081C56.3667 95.7886 52.8155 77.6631 50.5391 65.6401C48.2627 53.7082 46.4416 43.7801 46.6237 43.6891C48.1717 42.1406 55.0919 37.04 55.3651 37.2221C55.4561 37.4043 57.0951 45.0553 58.8252 54.2547ZM145.328 62.0878C151.975 64.3649 158.804 71.5605 160.807 78.3006C167.363 101.071 144.144 120.29 124.021 108.722C115.917 104.077 111.091 95.8797 111 86.407C110.818 75.7503 118.193 65.0936 127.936 61.6324C132.125 60.1751 140.32 60.3573 145.328 62.0878ZM130.941 115.645C131.032 115.736 130.85 117.102 130.577 118.65C130.122 120.836 129.484 121.565 128.027 121.565C124.567 121.565 123.748 120.381 124.84 117.193C125.751 114.643 126.115 114.37 128.21 114.825C129.575 115.189 130.759 115.554 130.941 115.645ZM126.479 125.299C128.027 125.846 129.302 126.575 129.302 126.848C129.211 127.212 127.481 134.226 125.296 142.514C120.834 159.273 121.198 159 113.641 155.812L110.272 154.355L115.462 139.326C120.925 123.296 120.925 123.387 126.479 125.299ZM69.3876 136.685C66.0186 143.789 65.5633 144.336 65.017 142.15C64.1975 138.78 71.0266 124.753 72.3014 127.212C72.9388 128.487 72.2104 130.947 69.3876 136.685ZM74.6689 139.964C74.6689 142.605 73.7583 145.156 71.2998 149.163C68.2039 154.264 67.9308 154.537 67.1113 152.716C66.3828 151.076 66.9291 149.163 69.7519 143.061C71.664 138.871 73.5762 135.683 74.0315 135.865C74.3957 136.047 74.6689 137.869 74.6689 139.964ZM77.3095 152.989C77.4005 153.535 75.3063 155.539 72.7567 157.361L68.2039 160.822L69.7519 157.816C70.5714 156.177 72.3014 153.171 73.5762 151.167C75.9436 147.524 75.9436 147.524 76.581 149.801C76.9453 151.076 77.2184 152.533 77.3095 152.989ZM102.896 190.06C103.533 191.79 106.538 206.455 106.538 208.276C106.538 208.549 103.716 207.274 100.255 205.453L93.9726 202.265L95.7027 197.802C96.6133 195.433 97.4328 192.519 97.4328 191.335C97.4328 190.242 97.7059 188.967 98.0701 188.693C99.3449 187.327 102.077 188.147 102.896 190.06Z" fill="#0A0A0A"/>
<path d="M164.505 215.278C161.731 216.821 160.478 218.909 160.478 221.722C160.478 227.712 169.159 230.344 172.918 225.534C175.335 222.448 175.245 220.361 172.829 217.547C170.412 214.825 167.011 213.917 164.505 215.278ZM169.786 220.179C170.502 222.267 169.428 224.263 167.548 224.263C165.579 224.263 164.505 222.267 165.311 220.179C165.579 219.453 166.564 218.818 167.548 218.818C168.443 218.818 169.428 219.453 169.786 220.179Z" fill="#0A0A0A"/>
<path d="M133.419 86.0287L140.313 83.9022L147.602 82.4963L146.827 90.5625C146.013 89.9974 144.61 89.525 143.62 89.4342C140.724 89.1558 138.629 91.1335 138.383 93.6946C138.136 96.2557 140.284 98.5576 143.18 98.8361C146.078 99.1147 148.625 97.2642 148.871 94.7031L150.182 81.0706C150.338 79.4398 150.363 78.5202 150.337 77.4186C150.334 77.2659 150.435 76.6659 150.424 76.5136C150.371 75.7591 150.217 75.0418 149.846 74.4213C149.614 74.0318 149.303 73.6932 148.933 73.4268L148.92 73.4183C147.844 72.6374 146.556 72.562 145.207 72.732C143.901 72.8974 142.844 72.9899 140.831 73.5238L136.748 74.79C135.806 75.0389 135.006 75.25 134.371 75.4873C133.698 75.7399 132.71 76.1509 132.388 76.504C131.919 77.0173 131.938 77.6647 131.796 78.3034C131.663 78.9049 131.592 79.6446 131.508 80.5167L130.417 91.8648C129.603 91.2997 128.653 90.9545 127.662 90.8637C124.766 90.5852 122.219 92.4357 121.973 94.9968C121.727 97.5579 123.874 99.8599 126.77 100.138C129.668 100.417 131.711 98.5179 131.957 95.9568L133.419 86.0287Z" fill="#0A0A0A"/>
<path d="M91.1491 63.7648C90.8583 64.5018 92.0216 70.7671 93.6697 77.5852C96.2872 88.1808 97.0628 90.1157 98.6139 90.1157C101.134 90.1157 100.941 88.1808 97.2567 74.5447C94.3483 63.7648 92.5064 60.4479 91.1491 63.7648Z" fill="#0A0A0A"/>
<path d="M98.8171 101.153C99.4529 105.643 100.804 107.791 102.155 106.424C103.823 104.765 101.996 97.6381 99.9297 97.6381C98.5787 97.6381 98.4198 98.1262 98.8171 101.153Z" fill="#0A0A0A"/>
<path d="M98.2774 302.261C98.0198 302.715 97.3328 306.165 96.8175 310.068C95.8729 316.059 95.8729 317.33 96.9034 317.965C97.5045 318.419 98.4492 318.419 99.0503 317.874C99.9091 317.148 101.97 306.709 101.97 303.078C101.97 301.626 98.9645 300.99 98.2774 302.261Z" fill="#0A0A0A"/>
<path d="M109.498 303.722C108.105 304.526 106.156 318.99 107.363 320.151C109.219 321.936 110.89 319.972 111.54 315.24C111.911 312.651 112.376 309.079 112.747 307.294C113.211 303.99 111.819 302.383 109.498 303.722Z" fill="#0A0A0A"/>
<path d="M28.8425 3.82129C28.8844 4.69222 32.3825 8.99888 36.5485 13.4164C43.7064 21.0845 44.1668 21.404 45.48 20.083C46.6548 18.901 46.3444 18.0395 43.5022 14.2467C41.6266 11.8294 37.9824 7.93051 35.4351 5.53669C30.7932 1.33716 28.5292 0.74532 28.8425 3.82129Z" fill="#0A0A0A"/>
<path d="M13.6552 25.0114C13.9011 25.6742 17.9046 28.5383 22.5819 31.3747C30.0228 35.982 31.1516 36.4067 32.7412 35.1977C34.9536 33.4921 33.9784 32.5227 23.6995 26.3494C17.8331 22.8889 15.6452 21.9692 14.539 22.8219C13.7814 23.324 13.3442 24.284 13.6552 25.0114Z" fill="#0A0A0A"/>
<path d="M0.912882 50.1452C1.89097 51.1175 22.1084 53.0795 22.9026 52.2805C23.2335 51.9476 23.3717 51.0261 23.3124 50.1729C23.1314 48.0075 3.17682 46.0419 1.32368 47.9062C0.595654 48.6386 0.391235 49.6267 0.912882 50.1452Z" fill="#0A0A0A"/>
</svg>
