<svg width="20" height="20" viewBox="0 0 20 20" fill="none" xmlns="http://www.w3.org/2000/svg">
<path d="M10.2195 18.7805C11.3727 18.782 12.515 18.5555 13.5805 18.1142C14.6459 17.6728 15.6137 17.0253 16.4281 16.2087C17.2447 15.3943 17.8923 14.4265 18.3336 13.361C18.775 12.2955 19.0014 11.1533 18.9999 10C19.0014 8.84672 18.775 7.70451 18.3336 6.63902C17.8922 5.57353 17.2447 4.60576 16.4281 3.79132C15.6137 2.97475 14.6459 2.32718 13.5805 1.88582C12.515 1.44446 11.3727 1.21803 10.2195 1.21952C9.06617 1.21805 7.92397 1.4445 6.85847 1.88585C5.79298 2.32721 4.82521 2.97477 4.01078 3.79132C3.19422 4.60576 2.54666 5.57353 2.10531 6.63902C1.66395 7.70451 1.4375 8.84672 1.43897 10C1.43748 11.1533 1.66392 12.2955 2.10527 13.361C2.54663 14.4265 3.1942 15.3943 4.01078 16.2087C4.82521 17.0252 5.79298 17.6728 6.85847 18.1142C7.92397 18.5555 9.06617 18.782 10.2195 18.7805Z" stroke="black" stroke-width="1.7561" stroke-linejoin="round"/>
<rect x="5.43896" y="9.09756" width="10" height="2" fill="black"/>
</svg>
