<svg width="20" height="20" viewBox="0 0 20 20" fill="none" xmlns="http://www.w3.org/2000/svg">
<path d="M9.78049 18.561C10.9338 18.5625 12.076 18.336 13.1415 17.8947C14.207 17.4533 15.1747 16.8057 15.9892 15.9892C16.8057 15.1747 17.4533 14.207 17.8947 13.1415C18.336 12.076 18.5625 10.9338 18.561 9.78049C18.5624 8.62721 18.336 7.485 17.8946 6.41951C17.4533 5.35402 16.8057 4.38625 15.9892 3.57181C15.1747 2.75524 14.207 2.10766 13.1415 1.66631C12.076 1.22495 10.9338 0.998513 9.78049 1.00001C8.62721 0.998537 7.485 1.22499 6.41951 1.66634C5.35402 2.1077 4.38625 2.75526 3.57181 3.57181C2.75526 4.38625 2.1077 5.35402 1.66634 6.41951C1.22499 7.485 0.998537 8.62721 1.00001 9.78049C0.998513 10.9338 1.22495 12.076 1.66631 13.1415C2.10766 14.207 2.75524 15.1747 3.57181 15.9892C4.38625 16.8057 5.35402 17.4533 6.41951 17.8946C7.485 18.336 8.62721 18.5624 9.78049 18.561Z" stroke="black" stroke-width="1.7561" stroke-linejoin="round"/>
<rect x="5" y="8.87805" width="10" height="2" fill="black"/>
</svg>
