<svg width="84" height="26" viewBox="0 0 84 26" fill="none" xmlns="http://www.w3.org/2000/svg">
<path d="M13.0684 0C5.85112 0 0 5.82045 0 13.0001C0 20.18 5.85112 26 13.0684 26C20.2865 26 26.137 20.18 26.137 13.0001C26.137 5.82094 20.2867 0 13.0684 0ZM19.0616 18.7499C19.0058 18.8408 18.9326 18.9198 18.8461 18.9826C18.7595 19.0453 18.6614 19.0904 18.5573 19.1154C18.4533 19.1403 18.3452 19.1446 18.2395 19.128C18.1337 19.1114 18.0323 19.0742 17.9411 19.0185C14.8728 17.154 11.0101 16.7318 6.46111 17.7657C6.25047 17.8134 6.02944 17.7759 5.84657 17.6615C5.66371 17.5471 5.53399 17.3652 5.48592 17.1557C5.46197 17.0519 5.45882 16.9445 5.47665 16.8396C5.49449 16.7346 5.53296 16.6342 5.58987 16.5441C5.64677 16.454 5.721 16.3759 5.80828 16.3143C5.89556 16.2528 5.9942 16.209 6.09853 16.1854C11.0767 15.0539 15.3467 15.541 18.7916 17.6353C18.8829 17.6908 18.9623 17.7637 19.0253 17.8498C19.0883 17.9359 19.1337 18.0335 19.1587 18.137C19.1838 18.2406 19.1881 18.348 19.1714 18.4532C19.1547 18.5583 19.1175 18.6591 19.0616 18.7499ZM20.6612 15.2101C20.3661 15.687 19.7389 15.8376 19.2596 15.5441C15.747 13.3963 10.3922 12.7742 6.23733 14.0289C5.97869 14.1068 5.69957 14.0794 5.4612 13.9528C5.22283 13.8262 5.04468 13.6107 4.96584 13.3536C4.88788 13.0963 4.91561 12.8188 5.04296 12.5819C5.17031 12.345 5.38688 12.1679 5.64523 12.0895C10.3914 10.6569 16.2916 11.3509 20.3255 13.8168C20.8046 14.1102 20.9562 14.7342 20.6612 15.2101ZM20.7984 11.524C16.5867 9.03546 9.63736 8.80664 5.61602 10.0209C4.97027 10.2158 4.28745 9.85313 4.09188 9.21074C3.9978 8.90214 4.03075 8.56901 4.1835 8.28457C4.33625 8.00013 4.59629 7.78767 4.90645 7.6939C9.52268 6.29979 17.1967 6.56908 22.0459 9.43287C22.1841 9.5142 22.3048 9.62186 22.4011 9.74967C22.4974 9.87748 22.5675 10.0229 22.6072 10.1777C22.6469 10.3325 22.6555 10.4935 22.6326 10.6516C22.6096 10.8097 22.5556 10.9618 22.4734 11.099C22.1302 11.6768 21.3773 11.8671 20.7984 11.524ZM35.5548 12.0009C33.2983 11.4656 32.8973 11.0901 32.8973 10.3006C32.8973 9.55478 33.6026 9.05292 34.6528 9.05292C35.6703 9.05292 36.6785 9.43417 37.7365 10.2187C37.7677 10.2424 37.8082 10.2518 37.8473 10.2456C37.8669 10.2428 37.8858 10.2361 37.9027 10.2258C37.9196 10.2155 37.9342 10.2019 37.9457 10.1857L39.0474 8.64082C39.0691 8.61021 39.0784 8.57248 39.0732 8.53533C39.0679 8.49819 39.0487 8.46441 39.0193 8.4409C37.76 7.43603 36.343 6.94755 34.6856 6.94755C32.2496 6.94755 30.5471 8.40189 30.5471 10.4829C30.5471 12.7145 32.0155 13.5047 34.553 14.1146C36.7113 14.6093 37.0763 15.0237 37.0763 15.7646C37.0763 16.5859 36.3397 17.0966 35.1538 17.0966C33.8367 17.0966 32.7615 16.6543 31.5599 15.6202C31.5299 15.5951 31.4914 15.5823 31.4523 15.5846C31.4328 15.5859 31.4137 15.5911 31.3963 15.5999C31.3788 15.6087 31.3633 15.6209 31.3507 15.6357L30.1148 17.098C30.09 17.1274 30.0776 17.1651 30.0802 17.2034C30.0829 17.2416 30.1003 17.2773 30.1289 17.303C31.5271 18.545 33.2468 19.2001 35.1038 19.2001C37.7288 19.2001 39.425 17.7734 39.425 15.5644C39.4296 13.7004 38.3078 12.6681 35.5596 12.0031L35.5548 12.0009ZM45.3644 9.78719C44.2268 9.78719 43.2936 10.2331 42.5227 11.1467V10.1185C42.5227 10.0372 42.4571 9.97113 42.376 9.97113H40.3551C40.316 9.97134 40.2787 9.98696 40.2512 10.0146C40.2237 10.0422 40.2083 10.0795 40.2084 10.1183V21.5443C40.2084 21.6249 40.2741 21.6917 40.3551 21.6917H42.376C42.4151 21.6914 42.4524 21.6757 42.4799 21.6481C42.5074 21.6205 42.5228 21.5831 42.5227 21.5443V17.9379C43.2936 18.7964 44.2268 19.2171 45.3643 19.2171C47.479 19.2171 49.62 17.5981 49.62 14.5027C49.6232 11.4067 47.482 9.78703 45.3659 9.78703L45.3644 9.78719ZM47.2699 14.5027C47.2699 16.0782 46.2945 17.1788 44.8962 17.1788C43.5151 17.1788 42.4727 16.0285 42.4727 14.5027C42.4727 12.9767 43.5151 11.8266 44.8962 11.8266C46.271 11.8266 47.2699 12.9518 47.2699 14.5027ZM55.1053 9.78719C52.3822 9.78719 50.2489 11.873 50.2489 14.5365C50.2489 17.1712 52.3681 19.2343 55.0725 19.2343C57.805 19.2343 59.9445 17.1557 59.9445 14.5027C59.9445 11.8588 57.8191 9.78719 55.1053 9.78719ZM55.1053 17.1943C53.6571 17.1943 52.5648 16.0362 52.5648 14.5019C52.5648 12.9606 53.6197 11.842 55.0725 11.842C56.53 11.842 57.6286 12.9996 57.6286 14.5355C57.6286 16.0767 56.5674 17.1943 55.1053 17.1943ZM65.759 9.97113H63.5353V7.70989C63.5353 7.62878 63.4697 7.56268 63.3887 7.56268H61.3676C61.3283 7.56277 61.2907 7.57829 61.2629 7.60587C61.2351 7.63345 61.2194 7.67085 61.2193 7.70989V9.97113H60.2487C60.2096 9.97134 60.1722 9.98696 60.1447 10.0146C60.1172 10.0422 60.1019 10.0795 60.102 10.1183V11.8457C60.1019 11.8846 60.1172 11.9219 60.1447 11.9496C60.1722 11.9772 60.2096 11.9928 60.2487 11.9931H61.2193V16.4633C61.2193 18.2687 62.1229 19.1846 63.9066 19.1846C64.6306 19.1846 65.2314 19.0355 65.7979 18.7157C65.8208 18.7033 65.8399 18.6848 65.8531 18.6624C65.8663 18.64 65.8731 18.6144 65.8729 18.5884V16.9428C65.8728 16.9179 65.8663 16.8934 65.854 16.8717C65.8417 16.85 65.824 16.8318 65.8027 16.8188C65.7814 16.8052 65.7569 16.7975 65.7317 16.7964C65.7064 16.7952 65.6813 16.8008 65.659 16.8124C65.2705 17.0066 64.8944 17.0966 64.473 17.0966C63.8254 17.0966 63.5352 16.8031 63.5352 16.148V11.9941H65.7589C65.798 11.9939 65.8354 11.9782 65.8629 11.9506C65.8904 11.9229 65.9057 11.8856 65.9055 11.8467V10.1193C65.9062 10.1 65.9029 10.0808 65.8959 10.0629C65.8889 10.0449 65.8783 10.0285 65.8648 10.0147C65.8512 10.001 65.835 9.99006 65.817 9.9827C65.7991 9.97535 65.7799 9.97169 65.7605 9.97194L65.759 9.97113ZM73.5056 9.97994V9.70216C73.5056 8.88515 73.8207 8.52087 74.526 8.52087C74.9477 8.52087 75.2861 8.6041 75.6655 8.72977C75.6877 8.7372 75.7113 8.73922 75.7345 8.73569C75.7577 8.73215 75.7796 8.72316 75.7986 8.70945C75.8175 8.69574 75.8329 8.67773 75.8434 8.6569C75.854 8.63607 75.8593 8.61305 75.8591 8.58974L75.8589 6.89614C75.8593 6.86451 75.8493 6.8336 75.8304 6.80813C75.8116 6.78265 75.7849 6.76399 75.7544 6.75497C75.3549 6.63648 74.843 6.51506 74.0752 6.51506C72.2103 6.51506 71.2225 7.5604 71.2225 9.53699V9.96231H70.2519C70.2126 9.9624 70.175 9.97792 70.1472 10.0055C70.1194 10.0331 70.1037 10.0705 70.1036 10.1095V11.8457C70.1036 11.9268 70.1708 11.9931 70.2519 11.9931H71.2225V18.8865C71.2225 18.9687 71.2897 19.034 71.3708 19.034H73.3901C73.4728 19.034 73.5384 18.9687 73.5384 18.8865V11.9936H75.4251L78.3152 18.8865C77.9874 19.61 77.6644 19.7542 77.2242 19.7542C76.8685 19.7542 76.4925 19.6488 76.1102 19.4392C76.074 19.421 76.0321 19.4171 75.9931 19.4283C75.9738 19.4348 75.9561 19.4451 75.941 19.4588C75.926 19.4724 75.9139 19.489 75.9056 19.5075L75.2207 21.0024C75.2049 21.0364 75.2027 21.075 75.2146 21.1105C75.2265 21.146 75.2516 21.1757 75.2847 21.1934C75.9993 21.5784 76.6438 21.7429 77.4413 21.7429C78.9331 21.7429 79.7587 21.0506 80.4843 19.1908L83.9893 10.1812C83.9985 10.1589 84.0018 10.1347 83.9991 10.1108C83.9964 10.0869 83.9876 10.0641 83.9737 10.0444C83.9606 10.0247 83.9427 10.0085 83.9217 9.99736C83.9007 9.9862 83.8773 9.98038 83.8535 9.98043H81.7499C81.719 9.98026 81.6889 9.98968 81.6637 10.0074C81.6386 10.0251 81.6196 10.0502 81.6094 10.0792L79.4543 16.2009L77.0948 10.0751C77.0842 10.0473 77.0654 10.0234 77.0409 10.0065C77.0164 9.98962 76.9873 9.98052 76.9575 9.98043L73.5056 9.97994ZM69.0144 9.97113H66.9934C66.9542 9.9713 66.9167 9.98686 66.8889 10.0144C66.8612 10.042 66.8455 10.0793 66.8453 10.1183V18.8865C66.8453 18.9687 66.9124 19.034 66.9934 19.034H69.0144C69.0956 19.034 69.1627 18.9687 69.1627 18.8865V10.119C69.1627 10.0996 69.159 10.0804 69.1515 10.0625C69.1441 10.0446 69.1332 10.0283 69.1194 10.0146C69.1056 10.0009 69.0892 9.99003 69.0712 9.98265C69.0532 9.97528 69.0339 9.97104 69.0144 9.97113ZM68.0156 5.97843C67.2149 5.97843 66.5659 6.6231 66.5659 7.41922C66.5659 7.60861 66.6034 7.79614 66.6762 7.97111C66.749 8.14609 66.8558 8.30507 66.9904 8.43899C67.1251 8.5729 67.2849 8.67912 67.4608 8.75159C67.6367 8.82405 67.8252 8.86134 68.0156 8.86132C68.8162 8.86132 69.4637 8.216 69.4637 7.41922C69.4637 7.03715 69.311 6.67076 69.0395 6.40058C68.7679 6.13041 68.3996 5.97856 68.0156 5.97843Z" fill="#1ED760"/>
<path d="M13.0684 0C5.85112 0 0 5.82045 0 13.0001C0 20.18 5.85112 26 13.0684 26C20.2865 26 26.137 20.18 26.137 13.0001C26.137 5.82094 20.2867 0 13.0684 0ZM19.0616 18.7499C19.0058 18.8408 18.9326 18.9198 18.8461 18.9826C18.7595 19.0453 18.6614 19.0904 18.5573 19.1154C18.4533 19.1403 18.3452 19.1446 18.2395 19.128C18.1337 19.1114 18.0323 19.0742 17.9411 19.0185C14.8728 17.154 11.0101 16.7318 6.46111 17.7657C6.25047 17.8134 6.02944 17.7759 5.84657 17.6615C5.66371 17.5471 5.53399 17.3652 5.48592 17.1557C5.46197 17.0519 5.45882 16.9445 5.47665 16.8396C5.49449 16.7346 5.53296 16.6342 5.58987 16.5441C5.64677 16.454 5.721 16.3759 5.80828 16.3143C5.89556 16.2528 5.9942 16.209 6.09853 16.1854C11.0767 15.0539 15.3467 15.541 18.7916 17.6353C18.8829 17.6908 18.9623 17.7637 19.0253 17.8498C19.0883 17.9359 19.1337 18.0335 19.1587 18.137C19.1838 18.2406 19.1881 18.348 19.1714 18.4532C19.1547 18.5583 19.1175 18.6591 19.0616 18.7499ZM20.6612 15.2101C20.3661 15.687 19.7389 15.8376 19.2596 15.5441C15.747 13.3963 10.3922 12.7742 6.23733 14.0289C5.97869 14.1068 5.69957 14.0794 5.4612 13.9528C5.22283 13.8262 5.04468 13.6107 4.96584 13.3536C4.88788 13.0963 4.91561 12.8188 5.04296 12.5819C5.17031 12.345 5.38688 12.1679 5.64523 12.0895C10.3914 10.6569 16.2916 11.3509 20.3255 13.8168C20.8046 14.1102 20.9562 14.7342 20.6612 15.2101ZM20.7984 11.524C16.5867 9.03546 9.63736 8.80664 5.61602 10.0209C4.97027 10.2158 4.28745 9.85313 4.09188 9.21074C3.9978 8.90214 4.03075 8.56901 4.1835 8.28457C4.33625 8.00013 4.59629 7.78767 4.90645 7.6939C9.52268 6.29979 17.1967 6.56908 22.0459 9.43287C22.1841 9.5142 22.3048 9.62186 22.4011 9.74967C22.4974 9.87748 22.5675 10.0229 22.6072 10.1777C22.6469 10.3325 22.6555 10.4935 22.6326 10.6516C22.6096 10.8097 22.5556 10.9618 22.4734 11.099C22.1302 11.6768 21.3773 11.8671 20.7984 11.524ZM35.5548 12.0009C33.2983 11.4656 32.8973 11.0901 32.8973 10.3006C32.8973 9.55478 33.6026 9.05292 34.6528 9.05292C35.6703 9.05292 36.6785 9.43417 37.7365 10.2187C37.7677 10.2424 37.8082 10.2518 37.8473 10.2456C37.8669 10.2428 37.8858 10.2361 37.9027 10.2258C37.9196 10.2155 37.9342 10.2019 37.9457 10.1857L39.0474 8.64082C39.0691 8.61021 39.0784 8.57248 39.0732 8.53533C39.0679 8.49819 39.0487 8.46441 39.0193 8.4409C37.76 7.43603 36.343 6.94755 34.6856 6.94755C32.2496 6.94755 30.5471 8.40189 30.5471 10.4829C30.5471 12.7145 32.0155 13.5047 34.553 14.1146C36.7113 14.6093 37.0763 15.0237 37.0763 15.7646C37.0763 16.5859 36.3397 17.0966 35.1538 17.0966C33.8367 17.0966 32.7615 16.6543 31.5599 15.6202C31.5299 15.5951 31.4914 15.5823 31.4523 15.5846C31.4328 15.5859 31.4137 15.5911 31.3963 15.5999C31.3788 15.6087 31.3633 15.6209 31.3507 15.6357L30.1148 17.098C30.09 17.1274 30.0776 17.1651 30.0802 17.2034C30.0829 17.2416 30.1003 17.2773 30.1289 17.303C31.5271 18.545 33.2468 19.2001 35.1038 19.2001C37.7288 19.2001 39.425 17.7734 39.425 15.5644C39.4296 13.7004 38.3078 12.6681 35.5596 12.0031L35.5548 12.0009ZM45.3644 9.78719C44.2268 9.78719 43.2936 10.2331 42.5227 11.1467V10.1185C42.5227 10.0372 42.4571 9.97113 42.376 9.97113H40.3551C40.316 9.97134 40.2787 9.98696 40.2512 10.0146C40.2237 10.0422 40.2083 10.0795 40.2084 10.1183V21.5443C40.2084 21.6249 40.2741 21.6917 40.3551 21.6917H42.376C42.4151 21.6914 42.4524 21.6757 42.4799 21.6481C42.5074 21.6205 42.5228 21.5831 42.5227 21.5443V17.9379C43.2936 18.7964 44.2268 19.2171 45.3643 19.2171C47.479 19.2171 49.62 17.5981 49.62 14.5027C49.6232 11.4067 47.482 9.78703 45.3659 9.78703L45.3644 9.78719ZM47.2699 14.5027C47.2699 16.0782 46.2945 17.1788 44.8962 17.1788C43.5151 17.1788 42.4727 16.0285 42.4727 14.5027C42.4727 12.9767 43.5151 11.8266 44.8962 11.8266C46.271 11.8266 47.2699 12.9518 47.2699 14.5027ZM55.1053 9.78719C52.3822 9.78719 50.2489 11.873 50.2489 14.5365C50.2489 17.1712 52.3681 19.2343 55.0725 19.2343C57.805 19.2343 59.9445 17.1557 59.9445 14.5027C59.9445 11.8588 57.8191 9.78719 55.1053 9.78719ZM55.1053 17.1943C53.6571 17.1943 52.5648 16.0362 52.5648 14.5019C52.5648 12.9606 53.6197 11.842 55.0725 11.842C56.53 11.842 57.6286 12.9996 57.6286 14.5355C57.6286 16.0767 56.5674 17.1943 55.1053 17.1943ZM65.759 9.97113H63.5353V7.70989C63.5353 7.62878 63.4697 7.56268 63.3887 7.56268H61.3676C61.3283 7.56277 61.2907 7.57829 61.2629 7.60587C61.2351 7.63345 61.2194 7.67085 61.2193 7.70989V9.97113H60.2487C60.2096 9.97134 60.1722 9.98696 60.1447 10.0146C60.1172 10.0422 60.1019 10.0795 60.102 10.1183V11.8457C60.1019 11.8846 60.1172 11.9219 60.1447 11.9496C60.1722 11.9772 60.2096 11.9928 60.2487 11.9931H61.2193V16.4633C61.2193 18.2687 62.1229 19.1846 63.9066 19.1846C64.6306 19.1846 65.2314 19.0355 65.7979 18.7157C65.8208 18.7033 65.8399 18.6848 65.8531 18.6624C65.8663 18.64 65.8731 18.6144 65.8729 18.5884V16.9428C65.8728 16.9179 65.8663 16.8934 65.854 16.8717C65.8417 16.85 65.824 16.8318 65.8027 16.8188C65.7814 16.8052 65.7569 16.7975 65.7317 16.7964C65.7064 16.7952 65.6813 16.8008 65.659 16.8124C65.2705 17.0066 64.8944 17.0966 64.473 17.0966C63.8254 17.0966 63.5352 16.8031 63.5352 16.148V11.9941H65.7589C65.798 11.9939 65.8354 11.9782 65.8629 11.9506C65.8904 11.9229 65.9057 11.8856 65.9055 11.8467V10.1193C65.9062 10.1 65.9029 10.0808 65.8959 10.0629C65.8889 10.0449 65.8783 10.0285 65.8648 10.0147C65.8512 10.001 65.835 9.99006 65.817 9.9827C65.7991 9.97535 65.7799 9.97169 65.7605 9.97194L65.759 9.97113ZM73.5056 9.97994V9.70216C73.5056 8.88515 73.8207 8.52087 74.526 8.52087C74.9477 8.52087 75.2861 8.6041 75.6655 8.72977C75.6877 8.7372 75.7113 8.73922 75.7345 8.73569C75.7577 8.73215 75.7796 8.72316 75.7986 8.70945C75.8175 8.69574 75.8329 8.67773 75.8434 8.6569C75.854 8.63607 75.8593 8.61305 75.8591 8.58974L75.8589 6.89614C75.8593 6.86451 75.8493 6.8336 75.8304 6.80813C75.8116 6.78265 75.7849 6.76399 75.7544 6.75497C75.3549 6.63648 74.843 6.51506 74.0752 6.51506C72.2103 6.51506 71.2225 7.5604 71.2225 9.53699V9.96231H70.2519C70.2126 9.9624 70.175 9.97792 70.1472 10.0055C70.1194 10.0331 70.1037 10.0705 70.1036 10.1095V11.8457C70.1036 11.9268 70.1708 11.9931 70.2519 11.9931H71.2225V18.8865C71.2225 18.9687 71.2897 19.034 71.3708 19.034H73.3901C73.4728 19.034 73.5384 18.9687 73.5384 18.8865V11.9936H75.4251L78.3152 18.8865C77.9874 19.61 77.6644 19.7542 77.2242 19.7542C76.8685 19.7542 76.4925 19.6488 76.1102 19.4392C76.074 19.421 76.0321 19.4171 75.9931 19.4283C75.9738 19.4348 75.9561 19.4451 75.941 19.4588C75.926 19.4724 75.9139 19.489 75.9056 19.5075L75.2207 21.0024C75.2049 21.0364 75.2027 21.075 75.2146 21.1105C75.2265 21.146 75.2516 21.1757 75.2847 21.1934C75.9993 21.5784 76.6438 21.7429 77.4413 21.7429C78.9331 21.7429 79.7587 21.0506 80.4843 19.1908L83.9893 10.1812C83.9985 10.1589 84.0018 10.1347 83.9991 10.1108C83.9964 10.0869 83.9876 10.0641 83.9737 10.0444C83.9606 10.0247 83.9427 10.0085 83.9217 9.99736C83.9007 9.9862 83.8773 9.98038 83.8535 9.98043H81.7499C81.719 9.98026 81.6889 9.98968 81.6637 10.0074C81.6386 10.0251 81.6196 10.0502 81.6094 10.0792L79.4543 16.2009L77.0948 10.0751C77.0842 10.0473 77.0654 10.0234 77.0409 10.0065C77.0164 9.98962 76.9873 9.98052 76.9575 9.98043L73.5056 9.97994ZM69.0144 9.97113H66.9934C66.9542 9.9713 66.9167 9.98686 66.8889 10.0144C66.8612 10.042 66.8455 10.0793 66.8453 10.1183V18.8865C66.8453 18.9687 66.9124 19.034 66.9934 19.034H69.0144C69.0956 19.034 69.1627 18.9687 69.1627 18.8865V10.119C69.1627 10.0996 69.159 10.0804 69.1515 10.0625C69.1441 10.0446 69.1332 10.0283 69.1194 10.0146C69.1056 10.0009 69.0892 9.99003 69.0712 9.98265C69.0532 9.97528 69.0339 9.97104 69.0144 9.97113ZM68.0156 5.97843C67.2149 5.97843 66.5659 6.6231 66.5659 7.41922C66.5659 7.60861 66.6034 7.79614 66.6762 7.97111C66.749 8.14609 66.8558 8.30507 66.9904 8.43899C67.1251 8.5729 67.2849 8.67912 67.4608 8.75159C67.6367 8.82405 67.8252 8.86134 68.0156 8.86132C68.8162 8.86132 69.4637 8.216 69.4637 7.41922C69.4637 7.03715 69.311 6.67076 69.0395 6.40058C68.7679 6.13041 68.3996 5.97856 68.0156 5.97843Z" fill="#FCF4F0"/>
</svg>
